<?xml version="1.0" encoding="UTF-8"?><svg xmlns="http://www.w3.org/2000/svg" xmlns:xlink="http://www.w3.org/1999/xlink" stroke-dasharray="none" shape-rendering="auto" font-family="'Dialog'" width="1053" text-rendering="auto" fill-opacity="1" contentScriptType="text/ecmascript" color-interpolation="auto" color-rendering="auto" preserveAspectRatio="xMidYMid meet" font-size="12" fill="black" stroke="black" image-rendering="auto" stroke-miterlimit="10" zoomAndPan="magnify" version="1.0" stroke-linecap="square" stroke-linejoin="miter" contentStyleType="text/css" font-style="normal" height="370" stroke-width="1" stroke-dashoffset="0" font-weight="normal" stroke-opacity="1">
    <!--Generated by the Batik Graphics2D SVG Generator-->
    <defs id="genericDefs"/>
    <g>
        <defs id="defs1">
            <clipPath clipPathUnits="userSpaceOnUse" id="clipPath1">
                <path d="M25 22 L1028 22 L1028 348 L25 348 L25 22 Z"/>
            </clipPath>
            <clipPath clipPathUnits="userSpaceOnUse" id="clipPath2">
                <path d="M-1 -1 L1054 -1 L1054 371 L-1 371 L-1 -1 Z"/>
            </clipPath>
        </defs>
        <g font-size="13" fill="white" text-rendering="geometricPrecision" stroke-linejoin="round" stroke="white" stroke-width="0" stroke-miterlimit="0">
            <rect x="26" y="23" clip-path="url(#clipPath1)" width="1001" height="324" stroke="none"/>
        </g>
        <g stroke-linecap="butt" font-size="13" fill="rgb(204,204,204)" text-rendering="geometricPrecision" stroke-dasharray="3,3" stroke="rgb(204,204,204)">
            <line clip-path="url(#clipPath1)" fill="none" x1="26" x2="26" y1="23" y2="347"/>
            <line clip-path="url(#clipPath1)" fill="none" x1="76" x2="76" y1="23" y2="347"/>
            <line clip-path="url(#clipPath1)" fill="none" x1="126" x2="126" y1="23" y2="347"/>
            <line clip-path="url(#clipPath1)" fill="none" x1="176" x2="176" y1="23" y2="347"/>
            <line clip-path="url(#clipPath1)" fill="none" x1="226" x2="226" y1="23" y2="347"/>
            <line clip-path="url(#clipPath1)" fill="none" x1="276" x2="276" y1="23" y2="347"/>
            <line clip-path="url(#clipPath1)" fill="none" x1="326" x2="326" y1="23" y2="347"/>
            <line clip-path="url(#clipPath1)" fill="none" x1="376" x2="376" y1="23" y2="347"/>
            <line clip-path="url(#clipPath1)" fill="none" x1="426" x2="426" y1="23" y2="347"/>
            <line clip-path="url(#clipPath1)" fill="none" x1="476" x2="476" y1="23" y2="347"/>
            <line clip-path="url(#clipPath1)" fill="none" x1="526" x2="526" y1="23" y2="347"/>
            <line clip-path="url(#clipPath1)" fill="none" x1="576" x2="576" y1="23" y2="347"/>
            <line clip-path="url(#clipPath1)" fill="none" x1="626" x2="626" y1="23" y2="347"/>
            <line clip-path="url(#clipPath1)" fill="none" x1="676" x2="676" y1="23" y2="347"/>
            <line clip-path="url(#clipPath1)" fill="none" x1="726" x2="726" y1="23" y2="347"/>
            <line clip-path="url(#clipPath1)" fill="none" x1="776" x2="776" y1="23" y2="347"/>
            <line clip-path="url(#clipPath1)" fill="none" x1="826" x2="826" y1="23" y2="347"/>
            <line clip-path="url(#clipPath1)" fill="none" x1="876" x2="876" y1="23" y2="347"/>
            <line clip-path="url(#clipPath1)" fill="none" x1="926" x2="926" y1="23" y2="347"/>
            <line clip-path="url(#clipPath1)" fill="none" x1="976" x2="976" y1="23" y2="347"/>
            <line clip-path="url(#clipPath1)" fill="none" x1="26" x2="1027" y1="347" y2="347"/>
            <line clip-path="url(#clipPath1)" fill="none" x1="26" x2="1027" y1="266" y2="266"/>
            <line clip-path="url(#clipPath1)" fill="none" x1="26" x2="1027" y1="185" y2="185"/>
            <line clip-path="url(#clipPath1)" fill="none" x1="26" x2="1027" y1="104" y2="104"/>
            <line clip-path="url(#clipPath1)" fill="none" x1="26" x2="1027" y1="23" y2="23"/>
        </g>
        <g stroke-linecap="butt" font-size="13" fill="rgb(204,0,0)" text-rendering="geometricPrecision" shape-rendering="crispEdges" stroke-dasharray="1,2" stroke="rgb(204,0,0)">
            <line clip-path="url(#clipPath1)" fill="none" x1="73" x2="73" y1="185" y2="185"/>
            <line clip-path="url(#clipPath1)" fill="none" x1="73" x2="73" y1="185" y2="144"/>
            <line clip-path="url(#clipPath1)" fill="none" x1="73" x2="120" y1="185" y2="185" stroke-dasharray="none"/>
            <line clip-path="url(#clipPath1)" fill="none" x1="73" x2="73" y1="185" y2="185"/>
            <line clip-path="url(#clipPath1)" fill="none" x1="120" x2="120" y1="185" y2="104"/>
            <line clip-path="url(#clipPath1)" fill="none" x1="120" x2="167" y1="185" y2="185" stroke-dasharray="none"/>
            <line clip-path="url(#clipPath1)" fill="none" x1="120" x2="120" y1="104" y2="185"/>
            <line clip-path="url(#clipPath1)" fill="none" x1="167" x2="167" y1="185" y2="104"/>
            <line clip-path="url(#clipPath1)" fill="none" x1="167" x2="214" y1="185" y2="185" stroke-dasharray="none"/>
            <line clip-path="url(#clipPath1)" fill="none" x1="167" x2="167" y1="104" y2="185"/>
            <line clip-path="url(#clipPath1)" fill="none" x1="214" x2="214" y1="185" y2="104"/>
            <line clip-path="url(#clipPath1)" fill="none" x1="214" x2="261" y1="185" y2="185" stroke-dasharray="none"/>
            <line clip-path="url(#clipPath1)" fill="none" x1="214" x2="214" y1="104" y2="185"/>
            <line clip-path="url(#clipPath1)" fill="none" x1="261" x2="261" y1="185" y2="104"/>
            <line clip-path="url(#clipPath1)" fill="none" x1="261" x2="308" y1="185" y2="185" stroke-dasharray="none"/>
            <line clip-path="url(#clipPath1)" fill="none" x1="261" x2="261" y1="104" y2="185"/>
            <line clip-path="url(#clipPath1)" fill="none" x1="308" x2="308" y1="185" y2="104"/>
            <line clip-path="url(#clipPath1)" fill="none" x1="308" x2="355" y1="185" y2="185" stroke-dasharray="none"/>
            <line clip-path="url(#clipPath1)" fill="none" x1="308" x2="308" y1="104" y2="185"/>
            <line clip-path="url(#clipPath1)" fill="none" x1="355" x2="355" y1="185" y2="104"/>
            <line clip-path="url(#clipPath1)" fill="none" x1="355" x2="402" y1="185" y2="185" stroke-dasharray="none"/>
            <line clip-path="url(#clipPath1)" fill="none" x1="355" x2="355" y1="104" y2="185"/>
            <line clip-path="url(#clipPath1)" fill="none" x1="402" x2="449" y1="185" y2="185" stroke-dasharray="none"/>
            <line clip-path="url(#clipPath1)" fill="none" x1="402" x2="402" y1="185" y2="185"/>
            <line clip-path="url(#clipPath1)" fill="none" x1="449" x2="449" y1="185" y2="104"/>
            <line clip-path="url(#clipPath1)" fill="none" x1="449" x2="496" y1="185" y2="185" stroke-dasharray="none"/>
            <line clip-path="url(#clipPath1)" fill="none" x1="449" x2="449" y1="185" y2="185"/>
            <line clip-path="url(#clipPath1)" fill="none" x1="496" x2="496" y1="185" y2="104"/>
            <line clip-path="url(#clipPath1)" fill="none" x1="496" x2="543" y1="185" y2="185" stroke-dasharray="none"/>
            <line clip-path="url(#clipPath1)" fill="none" x1="496" x2="496" y1="104" y2="185"/>
            <line clip-path="url(#clipPath1)" fill="none" x1="543" x2="543" y1="185" y2="104"/>
            <line clip-path="url(#clipPath1)" fill="none" x1="543" x2="590" y1="185" y2="185" stroke-dasharray="none"/>
            <line clip-path="url(#clipPath1)" fill="none" x1="543" x2="543" y1="104" y2="185"/>
            <line clip-path="url(#clipPath1)" fill="none" x1="590" x2="590" y1="185" y2="104"/>
            <line clip-path="url(#clipPath1)" fill="none" x1="590" x2="637" y1="185" y2="185" stroke-dasharray="none"/>
            <line clip-path="url(#clipPath1)" fill="none" x1="590" x2="590" y1="104" y2="185"/>
            <line clip-path="url(#clipPath1)" fill="none" x1="637" x2="637" y1="185" y2="104"/>
            <line clip-path="url(#clipPath1)" fill="none" x1="637" x2="684" y1="185" y2="185" stroke-dasharray="none"/>
            <line clip-path="url(#clipPath1)" fill="none" x1="637" x2="637" y1="104" y2="185"/>
            <line clip-path="url(#clipPath1)" fill="none" x1="684" x2="684" y1="185" y2="104"/>
            <line clip-path="url(#clipPath1)" fill="none" x1="684" x2="731" y1="185" y2="185" stroke-dasharray="none"/>
            <line clip-path="url(#clipPath1)" fill="none" x1="684" x2="684" y1="104" y2="185"/>
            <line clip-path="url(#clipPath1)" fill="none" x1="731" x2="731" y1="185" y2="104"/>
            <line clip-path="url(#clipPath1)" fill="none" x1="731" x2="778" y1="185" y2="185" stroke-dasharray="none"/>
            <line clip-path="url(#clipPath1)" fill="none" x1="731" x2="731" y1="104" y2="185"/>
            <line clip-path="url(#clipPath1)" fill="none" x1="778" x2="778" y1="185" y2="104"/>
            <line clip-path="url(#clipPath1)" fill="none" x1="778" x2="825" y1="185" y2="185" stroke-dasharray="none"/>
            <line clip-path="url(#clipPath1)" fill="none" x1="778" x2="778" y1="104" y2="185"/>
            <line clip-path="url(#clipPath1)" fill="none" x1="825" x2="825" y1="185" y2="104"/>
            <line clip-path="url(#clipPath1)" fill="none" x1="825" x2="872" y1="185" y2="185" stroke-dasharray="none"/>
            <line clip-path="url(#clipPath1)" fill="none" x1="825" x2="825" y1="185" y2="185"/>
            <line clip-path="url(#clipPath1)" fill="none" x1="872" x2="872" y1="185" y2="104"/>
            <line clip-path="url(#clipPath1)" fill="none" x1="872" x2="919" y1="185" y2="185" stroke-dasharray="none"/>
            <line clip-path="url(#clipPath1)" fill="none" x1="872" x2="872" y1="104" y2="185"/>
            <line clip-path="url(#clipPath1)" fill="none" x1="919" x2="919" y1="185" y2="104"/>
            <line clip-path="url(#clipPath1)" fill="none" x1="919" x2="966" y1="185" y2="185" stroke-dasharray="none"/>
            <line clip-path="url(#clipPath1)" fill="none" x1="919" x2="919" y1="104" y2="185"/>
            <line clip-path="url(#clipPath1)" fill="none" x1="966" x2="966" y1="185" y2="104"/>
            <line clip-path="url(#clipPath1)" fill="none" x1="966" x2="1013" y1="185" y2="185" stroke-dasharray="none"/>
            <line clip-path="url(#clipPath1)" fill="none" x1="966" x2="966" y1="185" y2="185"/>
            <line clip-path="url(#clipPath1)" fill="none" x1="1013" x2="1013" y1="185" y2="104"/>
            <line clip-path="url(#clipPath1)" fill="none" x1="1013" x2="1060" y1="185" y2="185" stroke-dasharray="none"/>
            <line clip-path="url(#clipPath1)" fill="none" x1="1013" x2="1013" y1="185" y2="185"/>
            <rect x="71" y="183" clip-path="url(#clipPath1)" width="5" shape-rendering="auto" height="5" stroke="none"/>
            <rect x="71" y="142" clip-path="url(#clipPath1)" width="5" shape-rendering="auto" height="5" stroke="none"/>
            <rect x="118" y="183" clip-path="url(#clipPath1)" width="5" shape-rendering="auto" height="5" stroke="none"/>
            <rect x="118" y="102" clip-path="url(#clipPath1)" width="5" shape-rendering="auto" height="5" stroke="none"/>
            <rect x="165" y="183" clip-path="url(#clipPath1)" width="5" shape-rendering="auto" height="5" stroke="none"/>
            <rect x="165" y="102" clip-path="url(#clipPath1)" width="5" shape-rendering="auto" height="5" stroke="none"/>
            <rect x="212" y="183" clip-path="url(#clipPath1)" width="5" shape-rendering="auto" height="5" stroke="none"/>
            <rect x="212" y="102" clip-path="url(#clipPath1)" width="5" shape-rendering="auto" height="5" stroke="none"/>
            <rect x="259" y="183" clip-path="url(#clipPath1)" width="5" shape-rendering="auto" height="5" stroke="none"/>
            <rect x="259" y="102" clip-path="url(#clipPath1)" width="5" shape-rendering="auto" height="5" stroke="none"/>
            <rect x="306" y="183" clip-path="url(#clipPath1)" width="5" shape-rendering="auto" height="5" stroke="none"/>
            <rect x="306" y="102" clip-path="url(#clipPath1)" width="5" shape-rendering="auto" height="5" stroke="none"/>
            <rect x="353" y="183" clip-path="url(#clipPath1)" width="5" shape-rendering="auto" height="5" stroke="none"/>
            <rect x="353" y="102" clip-path="url(#clipPath1)" width="5" shape-rendering="auto" height="5" stroke="none"/>
            <rect x="400" y="183" clip-path="url(#clipPath1)" width="5" shape-rendering="auto" height="5" stroke="none"/>
            <rect x="447" y="183" clip-path="url(#clipPath1)" width="5" shape-rendering="auto" height="5" stroke="none"/>
            <rect x="447" y="102" clip-path="url(#clipPath1)" width="5" shape-rendering="auto" height="5" stroke="none"/>
            <rect x="494" y="183" clip-path="url(#clipPath1)" width="5" shape-rendering="auto" height="5" stroke="none"/>
            <rect x="494" y="102" clip-path="url(#clipPath1)" width="5" shape-rendering="auto" height="5" stroke="none"/>
            <rect x="541" y="183" clip-path="url(#clipPath1)" width="5" shape-rendering="auto" height="5" stroke="none"/>
            <rect x="541" y="102" clip-path="url(#clipPath1)" width="5" shape-rendering="auto" height="5" stroke="none"/>
            <rect x="588" y="183" clip-path="url(#clipPath1)" width="5" shape-rendering="auto" height="5" stroke="none"/>
            <rect x="588" y="102" clip-path="url(#clipPath1)" width="5" shape-rendering="auto" height="5" stroke="none"/>
            <rect x="635" y="183" clip-path="url(#clipPath1)" width="5" shape-rendering="auto" height="5" stroke="none"/>
            <rect x="635" y="102" clip-path="url(#clipPath1)" width="5" shape-rendering="auto" height="5" stroke="none"/>
            <rect x="682" y="183" clip-path="url(#clipPath1)" width="5" shape-rendering="auto" height="5" stroke="none"/>
            <rect x="682" y="102" clip-path="url(#clipPath1)" width="5" shape-rendering="auto" height="5" stroke="none"/>
            <rect x="729" y="183" clip-path="url(#clipPath1)" width="5" shape-rendering="auto" height="5" stroke="none"/>
            <rect x="729" y="102" clip-path="url(#clipPath1)" width="5" shape-rendering="auto" height="5" stroke="none"/>
            <rect x="776" y="183" clip-path="url(#clipPath1)" width="5" shape-rendering="auto" height="5" stroke="none"/>
            <rect x="776" y="102" clip-path="url(#clipPath1)" width="5" shape-rendering="auto" height="5" stroke="none"/>
            <rect x="823" y="183" clip-path="url(#clipPath1)" width="5" shape-rendering="auto" height="5" stroke="none"/>
            <rect x="823" y="102" clip-path="url(#clipPath1)" width="5" shape-rendering="auto" height="5" stroke="none"/>
            <rect x="870" y="183" clip-path="url(#clipPath1)" width="5" shape-rendering="auto" height="5" stroke="none"/>
            <rect x="870" y="102" clip-path="url(#clipPath1)" width="5" shape-rendering="auto" height="5" stroke="none"/>
            <rect x="917" y="183" clip-path="url(#clipPath1)" width="5" shape-rendering="auto" height="5" stroke="none"/>
            <rect x="917" y="102" clip-path="url(#clipPath1)" width="5" shape-rendering="auto" height="5" stroke="none"/>
            <rect x="964" y="183" clip-path="url(#clipPath1)" width="5" shape-rendering="auto" height="5" stroke="none"/>
            <rect x="964" y="102" clip-path="url(#clipPath1)" width="5" shape-rendering="auto" height="5" stroke="none"/>
            <rect x="1011" y="183" clip-path="url(#clipPath1)" width="5" shape-rendering="auto" height="5" stroke="none"/>
            <rect x="1011" y="102" clip-path="url(#clipPath1)" width="5" shape-rendering="auto" height="5" stroke="none"/>
            <rect x="1058" y="183" clip-path="url(#clipPath1)" width="5" shape-rendering="auto" height="5" stroke="none"/>
        </g>
        <g text-rendering="geometricPrecision" font-size="13" stroke-linecap="butt">
            <rect x="26" y="23" clip-path="url(#clipPath2)" fill="none" width="1001" height="324"/>
            <line clip-path="url(#clipPath2)" fill="none" x1="26" x2="1027" y1="21" y2="21"/>
            <line clip-path="url(#clipPath2)" fill="none" x1="26" x2="1027" y1="349" y2="349"/>
            <line clip-path="url(#clipPath2)" fill="none" x1="26" x2="26" y1="17" y2="21"/>
            <line clip-path="url(#clipPath2)" fill="none" x1="26" x2="26" y1="353" y2="349"/>
            <text x="12" font-size="10" y="13" clip-path="url(#clipPath2)" stroke="none" xml:space="preserve">10.000</text>
            <text x="12" font-size="10" y="364" clip-path="url(#clipPath2)" stroke="none" xml:space="preserve">10.000</text>
            <line clip-path="url(#clipPath2)" fill="none" x1="36" x2="36" y1="19" y2="21"/>
            <line clip-path="url(#clipPath2)" fill="none" x1="36" x2="36" y1="351" y2="349"/>
            <line clip-path="url(#clipPath2)" fill="none" x1="46" x2="46" y1="19" y2="21"/>
            <line clip-path="url(#clipPath2)" fill="none" x1="46" x2="46" y1="351" y2="349"/>
            <line clip-path="url(#clipPath2)" fill="none" x1="56" x2="56" y1="19" y2="21"/>
            <line clip-path="url(#clipPath2)" fill="none" x1="56" x2="56" y1="351" y2="349"/>
            <line clip-path="url(#clipPath2)" fill="none" x1="66" x2="66" y1="19" y2="21"/>
            <line clip-path="url(#clipPath2)" fill="none" x1="66" x2="66" y1="351" y2="349"/>
            <line clip-path="url(#clipPath2)" fill="none" x1="76" x2="76" y1="17" y2="21"/>
            <line clip-path="url(#clipPath2)" fill="none" x1="76" x2="76" y1="353" y2="349"/>
            <text x="60" font-size="10" y="13" clip-path="url(#clipPath2)" stroke="none" xml:space="preserve">10.0005</text>
            <text x="60" font-size="10" y="364" clip-path="url(#clipPath2)" stroke="none" xml:space="preserve">10.0005</text>
            <line clip-path="url(#clipPath2)" fill="none" x1="86" x2="86" y1="19" y2="21"/>
            <line clip-path="url(#clipPath2)" fill="none" x1="86" x2="86" y1="351" y2="349"/>
            <line clip-path="url(#clipPath2)" fill="none" x1="96" x2="96" y1="19" y2="21"/>
            <line clip-path="url(#clipPath2)" fill="none" x1="96" x2="96" y1="351" y2="349"/>
            <line clip-path="url(#clipPath2)" fill="none" x1="106" x2="106" y1="19" y2="21"/>
            <line clip-path="url(#clipPath2)" fill="none" x1="106" x2="106" y1="351" y2="349"/>
            <line clip-path="url(#clipPath2)" fill="none" x1="116" x2="116" y1="19" y2="21"/>
            <line clip-path="url(#clipPath2)" fill="none" x1="116" x2="116" y1="351" y2="349"/>
            <line clip-path="url(#clipPath2)" fill="none" x1="126" x2="126" y1="17" y2="21"/>
            <line clip-path="url(#clipPath2)" fill="none" x1="126" x2="126" y1="353" y2="349"/>
            <text x="110" font-size="10" y="13" clip-path="url(#clipPath2)" stroke="none" xml:space="preserve">10.0010</text>
            <text x="110" font-size="10" y="364" clip-path="url(#clipPath2)" stroke="none" xml:space="preserve">10.0010</text>
            <line clip-path="url(#clipPath2)" fill="none" x1="136" x2="136" y1="19" y2="21"/>
            <line clip-path="url(#clipPath2)" fill="none" x1="136" x2="136" y1="351" y2="349"/>
            <line clip-path="url(#clipPath2)" fill="none" x1="146" x2="146" y1="19" y2="21"/>
            <line clip-path="url(#clipPath2)" fill="none" x1="146" x2="146" y1="351" y2="349"/>
            <line clip-path="url(#clipPath2)" fill="none" x1="156" x2="156" y1="19" y2="21"/>
            <line clip-path="url(#clipPath2)" fill="none" x1="156" x2="156" y1="351" y2="349"/>
            <line clip-path="url(#clipPath2)" fill="none" x1="166" x2="166" y1="19" y2="21"/>
            <line clip-path="url(#clipPath2)" fill="none" x1="166" x2="166" y1="351" y2="349"/>
            <line clip-path="url(#clipPath2)" fill="none" x1="176" x2="176" y1="17" y2="21"/>
            <line clip-path="url(#clipPath2)" fill="none" x1="176" x2="176" y1="353" y2="349"/>
            <text x="160" font-size="10" y="13" clip-path="url(#clipPath2)" stroke="none" xml:space="preserve">10.0015</text>
            <text x="160" font-size="10" y="364" clip-path="url(#clipPath2)" stroke="none" xml:space="preserve">10.0015</text>
            <line clip-path="url(#clipPath2)" fill="none" x1="186" x2="186" y1="19" y2="21"/>
            <line clip-path="url(#clipPath2)" fill="none" x1="186" x2="186" y1="351" y2="349"/>
            <line clip-path="url(#clipPath2)" fill="none" x1="196" x2="196" y1="19" y2="21"/>
            <line clip-path="url(#clipPath2)" fill="none" x1="196" x2="196" y1="351" y2="349"/>
            <line clip-path="url(#clipPath2)" fill="none" x1="206" x2="206" y1="19" y2="21"/>
            <line clip-path="url(#clipPath2)" fill="none" x1="206" x2="206" y1="351" y2="349"/>
            <line clip-path="url(#clipPath2)" fill="none" x1="216" x2="216" y1="19" y2="21"/>
            <line clip-path="url(#clipPath2)" fill="none" x1="216" x2="216" y1="351" y2="349"/>
            <line clip-path="url(#clipPath2)" fill="none" x1="226" x2="226" y1="17" y2="21"/>
            <line clip-path="url(#clipPath2)" fill="none" x1="226" x2="226" y1="353" y2="349"/>
            <text x="210" font-size="10" y="13" clip-path="url(#clipPath2)" stroke="none" xml:space="preserve">10.0020</text>
            <text x="210" font-size="10" y="364" clip-path="url(#clipPath2)" stroke="none" xml:space="preserve">10.0020</text>
            <line clip-path="url(#clipPath2)" fill="none" x1="236" x2="236" y1="19" y2="21"/>
            <line clip-path="url(#clipPath2)" fill="none" x1="236" x2="236" y1="351" y2="349"/>
            <line clip-path="url(#clipPath2)" fill="none" x1="246" x2="246" y1="19" y2="21"/>
            <line clip-path="url(#clipPath2)" fill="none" x1="246" x2="246" y1="351" y2="349"/>
            <line clip-path="url(#clipPath2)" fill="none" x1="256" x2="256" y1="19" y2="21"/>
            <line clip-path="url(#clipPath2)" fill="none" x1="256" x2="256" y1="351" y2="349"/>
            <line clip-path="url(#clipPath2)" fill="none" x1="266" x2="266" y1="19" y2="21"/>
            <line clip-path="url(#clipPath2)" fill="none" x1="266" x2="266" y1="351" y2="349"/>
            <line clip-path="url(#clipPath2)" fill="none" x1="276" x2="276" y1="17" y2="21"/>
            <line clip-path="url(#clipPath2)" fill="none" x1="276" x2="276" y1="353" y2="349"/>
            <text x="260" font-size="10" y="13" clip-path="url(#clipPath2)" stroke="none" xml:space="preserve">10.0025</text>
            <text x="260" font-size="10" y="364" clip-path="url(#clipPath2)" stroke="none" xml:space="preserve">10.0025</text>
            <line clip-path="url(#clipPath2)" fill="none" x1="286" x2="286" y1="19" y2="21"/>
            <line clip-path="url(#clipPath2)" fill="none" x1="286" x2="286" y1="351" y2="349"/>
            <line clip-path="url(#clipPath2)" fill="none" x1="296" x2="296" y1="19" y2="21"/>
            <line clip-path="url(#clipPath2)" fill="none" x1="296" x2="296" y1="351" y2="349"/>
            <line clip-path="url(#clipPath2)" fill="none" x1="306" x2="306" y1="19" y2="21"/>
            <line clip-path="url(#clipPath2)" fill="none" x1="306" x2="306" y1="351" y2="349"/>
            <line clip-path="url(#clipPath2)" fill="none" x1="316" x2="316" y1="19" y2="21"/>
            <line clip-path="url(#clipPath2)" fill="none" x1="316" x2="316" y1="351" y2="349"/>
            <line clip-path="url(#clipPath2)" fill="none" x1="326" x2="326" y1="17" y2="21"/>
            <line clip-path="url(#clipPath2)" fill="none" x1="326" x2="326" y1="353" y2="349"/>
            <text x="310" font-size="10" y="13" clip-path="url(#clipPath2)" stroke="none" xml:space="preserve">10.0030</text>
            <text x="310" font-size="10" y="364" clip-path="url(#clipPath2)" stroke="none" xml:space="preserve">10.0030</text>
            <line clip-path="url(#clipPath2)" fill="none" x1="336" x2="336" y1="19" y2="21"/>
            <line clip-path="url(#clipPath2)" fill="none" x1="336" x2="336" y1="351" y2="349"/>
            <line clip-path="url(#clipPath2)" fill="none" x1="346" x2="346" y1="19" y2="21"/>
            <line clip-path="url(#clipPath2)" fill="none" x1="346" x2="346" y1="351" y2="349"/>
            <line clip-path="url(#clipPath2)" fill="none" x1="356" x2="356" y1="19" y2="21"/>
            <line clip-path="url(#clipPath2)" fill="none" x1="356" x2="356" y1="351" y2="349"/>
            <line clip-path="url(#clipPath2)" fill="none" x1="366" x2="366" y1="19" y2="21"/>
            <line clip-path="url(#clipPath2)" fill="none" x1="366" x2="366" y1="351" y2="349"/>
            <line clip-path="url(#clipPath2)" fill="none" x1="376" x2="376" y1="17" y2="21"/>
            <line clip-path="url(#clipPath2)" fill="none" x1="376" x2="376" y1="353" y2="349"/>
            <text x="360" font-size="10" y="13" clip-path="url(#clipPath2)" stroke="none" xml:space="preserve">10.0035</text>
            <text x="360" font-size="10" y="364" clip-path="url(#clipPath2)" stroke="none" xml:space="preserve">10.0035</text>
            <line clip-path="url(#clipPath2)" fill="none" x1="386" x2="386" y1="19" y2="21"/>
            <line clip-path="url(#clipPath2)" fill="none" x1="386" x2="386" y1="351" y2="349"/>
            <line clip-path="url(#clipPath2)" fill="none" x1="396" x2="396" y1="19" y2="21"/>
            <line clip-path="url(#clipPath2)" fill="none" x1="396" x2="396" y1="351" y2="349"/>
            <line clip-path="url(#clipPath2)" fill="none" x1="406" x2="406" y1="19" y2="21"/>
            <line clip-path="url(#clipPath2)" fill="none" x1="406" x2="406" y1="351" y2="349"/>
            <line clip-path="url(#clipPath2)" fill="none" x1="416" x2="416" y1="19" y2="21"/>
            <line clip-path="url(#clipPath2)" fill="none" x1="416" x2="416" y1="351" y2="349"/>
            <line clip-path="url(#clipPath2)" fill="none" x1="426" x2="426" y1="17" y2="21"/>
            <line clip-path="url(#clipPath2)" fill="none" x1="426" x2="426" y1="353" y2="349"/>
            <text x="410" font-size="10" y="13" clip-path="url(#clipPath2)" stroke="none" xml:space="preserve">10.0040</text>
            <text x="410" font-size="10" y="364" clip-path="url(#clipPath2)" stroke="none" xml:space="preserve">10.0040</text>
            <line clip-path="url(#clipPath2)" fill="none" x1="436" x2="436" y1="19" y2="21"/>
            <line clip-path="url(#clipPath2)" fill="none" x1="436" x2="436" y1="351" y2="349"/>
            <line clip-path="url(#clipPath2)" fill="none" x1="446" x2="446" y1="19" y2="21"/>
            <line clip-path="url(#clipPath2)" fill="none" x1="446" x2="446" y1="351" y2="349"/>
            <line clip-path="url(#clipPath2)" fill="none" x1="456" x2="456" y1="19" y2="21"/>
            <line clip-path="url(#clipPath2)" fill="none" x1="456" x2="456" y1="351" y2="349"/>
            <line clip-path="url(#clipPath2)" fill="none" x1="466" x2="466" y1="19" y2="21"/>
            <line clip-path="url(#clipPath2)" fill="none" x1="466" x2="466" y1="351" y2="349"/>
            <line clip-path="url(#clipPath2)" fill="none" x1="476" x2="476" y1="17" y2="21"/>
            <line clip-path="url(#clipPath2)" fill="none" x1="476" x2="476" y1="353" y2="349"/>
            <text x="460" font-size="10" y="13" clip-path="url(#clipPath2)" stroke="none" xml:space="preserve">10.0045</text>
            <text x="460" font-size="10" y="364" clip-path="url(#clipPath2)" stroke="none" xml:space="preserve">10.0045</text>
            <line clip-path="url(#clipPath2)" fill="none" x1="486" x2="486" y1="19" y2="21"/>
            <line clip-path="url(#clipPath2)" fill="none" x1="486" x2="486" y1="351" y2="349"/>
            <line clip-path="url(#clipPath2)" fill="none" x1="496" x2="496" y1="19" y2="21"/>
            <line clip-path="url(#clipPath2)" fill="none" x1="496" x2="496" y1="351" y2="349"/>
            <line clip-path="url(#clipPath2)" fill="none" x1="506" x2="506" y1="19" y2="21"/>
            <line clip-path="url(#clipPath2)" fill="none" x1="506" x2="506" y1="351" y2="349"/>
            <line clip-path="url(#clipPath2)" fill="none" x1="516" x2="516" y1="19" y2="21"/>
            <line clip-path="url(#clipPath2)" fill="none" x1="516" x2="516" y1="351" y2="349"/>
            <line clip-path="url(#clipPath2)" fill="none" x1="526" x2="526" y1="17" y2="21"/>
            <line clip-path="url(#clipPath2)" fill="none" x1="526" x2="526" y1="353" y2="349"/>
            <text x="510" font-size="10" y="13" clip-path="url(#clipPath2)" stroke="none" xml:space="preserve">10.0050</text>
            <text x="510" font-size="10" y="364" clip-path="url(#clipPath2)" stroke="none" xml:space="preserve">10.0050</text>
            <line clip-path="url(#clipPath2)" fill="none" x1="536" x2="536" y1="19" y2="21"/>
            <line clip-path="url(#clipPath2)" fill="none" x1="536" x2="536" y1="351" y2="349"/>
            <line clip-path="url(#clipPath2)" fill="none" x1="546" x2="546" y1="19" y2="21"/>
            <line clip-path="url(#clipPath2)" fill="none" x1="546" x2="546" y1="351" y2="349"/>
            <line clip-path="url(#clipPath2)" fill="none" x1="556" x2="556" y1="19" y2="21"/>
            <line clip-path="url(#clipPath2)" fill="none" x1="556" x2="556" y1="351" y2="349"/>
            <line clip-path="url(#clipPath2)" fill="none" x1="566" x2="566" y1="19" y2="21"/>
            <line clip-path="url(#clipPath2)" fill="none" x1="566" x2="566" y1="351" y2="349"/>
            <line clip-path="url(#clipPath2)" fill="none" x1="576" x2="576" y1="17" y2="21"/>
            <line clip-path="url(#clipPath2)" fill="none" x1="576" x2="576" y1="353" y2="349"/>
            <text x="560" font-size="10" y="13" clip-path="url(#clipPath2)" stroke="none" xml:space="preserve">10.0055</text>
            <text x="560" font-size="10" y="364" clip-path="url(#clipPath2)" stroke="none" xml:space="preserve">10.0055</text>
            <line clip-path="url(#clipPath2)" fill="none" x1="586" x2="586" y1="19" y2="21"/>
            <line clip-path="url(#clipPath2)" fill="none" x1="586" x2="586" y1="351" y2="349"/>
            <line clip-path="url(#clipPath2)" fill="none" x1="596" x2="596" y1="19" y2="21"/>
            <line clip-path="url(#clipPath2)" fill="none" x1="596" x2="596" y1="351" y2="349"/>
            <line clip-path="url(#clipPath2)" fill="none" x1="606" x2="606" y1="19" y2="21"/>
            <line clip-path="url(#clipPath2)" fill="none" x1="606" x2="606" y1="351" y2="349"/>
            <line clip-path="url(#clipPath2)" fill="none" x1="616" x2="616" y1="19" y2="21"/>
            <line clip-path="url(#clipPath2)" fill="none" x1="616" x2="616" y1="351" y2="349"/>
            <line clip-path="url(#clipPath2)" fill="none" x1="626" x2="626" y1="17" y2="21"/>
            <line clip-path="url(#clipPath2)" fill="none" x1="626" x2="626" y1="353" y2="349"/>
            <text x="610" font-size="10" y="13" clip-path="url(#clipPath2)" stroke="none" xml:space="preserve">10.0060</text>
            <text x="610" font-size="10" y="364" clip-path="url(#clipPath2)" stroke="none" xml:space="preserve">10.0060</text>
            <line clip-path="url(#clipPath2)" fill="none" x1="636" x2="636" y1="19" y2="21"/>
            <line clip-path="url(#clipPath2)" fill="none" x1="636" x2="636" y1="351" y2="349"/>
            <line clip-path="url(#clipPath2)" fill="none" x1="646" x2="646" y1="19" y2="21"/>
            <line clip-path="url(#clipPath2)" fill="none" x1="646" x2="646" y1="351" y2="349"/>
            <line clip-path="url(#clipPath2)" fill="none" x1="656" x2="656" y1="19" y2="21"/>
            <line clip-path="url(#clipPath2)" fill="none" x1="656" x2="656" y1="351" y2="349"/>
            <line clip-path="url(#clipPath2)" fill="none" x1="666" x2="666" y1="19" y2="21"/>
            <line clip-path="url(#clipPath2)" fill="none" x1="666" x2="666" y1="351" y2="349"/>
            <line clip-path="url(#clipPath2)" fill="none" x1="676" x2="676" y1="17" y2="21"/>
            <line clip-path="url(#clipPath2)" fill="none" x1="676" x2="676" y1="353" y2="349"/>
            <text x="660" font-size="10" y="13" clip-path="url(#clipPath2)" stroke="none" xml:space="preserve">10.0065</text>
            <text x="660" font-size="10" y="364" clip-path="url(#clipPath2)" stroke="none" xml:space="preserve">10.0065</text>
            <line clip-path="url(#clipPath2)" fill="none" x1="686" x2="686" y1="19" y2="21"/>
            <line clip-path="url(#clipPath2)" fill="none" x1="686" x2="686" y1="351" y2="349"/>
            <line clip-path="url(#clipPath2)" fill="none" x1="696" x2="696" y1="19" y2="21"/>
            <line clip-path="url(#clipPath2)" fill="none" x1="696" x2="696" y1="351" y2="349"/>
            <line clip-path="url(#clipPath2)" fill="none" x1="706" x2="706" y1="19" y2="21"/>
            <line clip-path="url(#clipPath2)" fill="none" x1="706" x2="706" y1="351" y2="349"/>
            <line clip-path="url(#clipPath2)" fill="none" x1="716" x2="716" y1="19" y2="21"/>
            <line clip-path="url(#clipPath2)" fill="none" x1="716" x2="716" y1="351" y2="349"/>
            <line clip-path="url(#clipPath2)" fill="none" x1="726" x2="726" y1="17" y2="21"/>
            <line clip-path="url(#clipPath2)" fill="none" x1="726" x2="726" y1="353" y2="349"/>
            <text x="710" font-size="10" y="13" clip-path="url(#clipPath2)" stroke="none" xml:space="preserve">10.0070</text>
            <text x="710" font-size="10" y="364" clip-path="url(#clipPath2)" stroke="none" xml:space="preserve">10.0070</text>
            <line clip-path="url(#clipPath2)" fill="none" x1="736" x2="736" y1="19" y2="21"/>
            <line clip-path="url(#clipPath2)" fill="none" x1="736" x2="736" y1="351" y2="349"/>
            <line clip-path="url(#clipPath2)" fill="none" x1="746" x2="746" y1="19" y2="21"/>
            <line clip-path="url(#clipPath2)" fill="none" x1="746" x2="746" y1="351" y2="349"/>
            <line clip-path="url(#clipPath2)" fill="none" x1="756" x2="756" y1="19" y2="21"/>
            <line clip-path="url(#clipPath2)" fill="none" x1="756" x2="756" y1="351" y2="349"/>
            <line clip-path="url(#clipPath2)" fill="none" x1="766" x2="766" y1="19" y2="21"/>
            <line clip-path="url(#clipPath2)" fill="none" x1="766" x2="766" y1="351" y2="349"/>
            <line clip-path="url(#clipPath2)" fill="none" x1="776" x2="776" y1="17" y2="21"/>
            <line clip-path="url(#clipPath2)" fill="none" x1="776" x2="776" y1="353" y2="349"/>
            <text x="760" font-size="10" y="13" clip-path="url(#clipPath2)" stroke="none" xml:space="preserve">10.0075</text>
            <text x="760" font-size="10" y="364" clip-path="url(#clipPath2)" stroke="none" xml:space="preserve">10.0075</text>
            <line clip-path="url(#clipPath2)" fill="none" x1="786" x2="786" y1="19" y2="21"/>
            <line clip-path="url(#clipPath2)" fill="none" x1="786" x2="786" y1="351" y2="349"/>
            <line clip-path="url(#clipPath2)" fill="none" x1="796" x2="796" y1="19" y2="21"/>
            <line clip-path="url(#clipPath2)" fill="none" x1="796" x2="796" y1="351" y2="349"/>
            <line clip-path="url(#clipPath2)" fill="none" x1="806" x2="806" y1="19" y2="21"/>
            <line clip-path="url(#clipPath2)" fill="none" x1="806" x2="806" y1="351" y2="349"/>
            <line clip-path="url(#clipPath2)" fill="none" x1="816" x2="816" y1="19" y2="21"/>
            <line clip-path="url(#clipPath2)" fill="none" x1="816" x2="816" y1="351" y2="349"/>
            <line clip-path="url(#clipPath2)" fill="none" x1="826" x2="826" y1="17" y2="21"/>
            <line clip-path="url(#clipPath2)" fill="none" x1="826" x2="826" y1="353" y2="349"/>
            <text x="810" font-size="10" y="13" clip-path="url(#clipPath2)" stroke="none" xml:space="preserve">10.0080</text>
            <text x="810" font-size="10" y="364" clip-path="url(#clipPath2)" stroke="none" xml:space="preserve">10.0080</text>
            <line clip-path="url(#clipPath2)" fill="none" x1="836" x2="836" y1="19" y2="21"/>
            <line clip-path="url(#clipPath2)" fill="none" x1="836" x2="836" y1="351" y2="349"/>
            <line clip-path="url(#clipPath2)" fill="none" x1="846" x2="846" y1="19" y2="21"/>
            <line clip-path="url(#clipPath2)" fill="none" x1="846" x2="846" y1="351" y2="349"/>
            <line clip-path="url(#clipPath2)" fill="none" x1="856" x2="856" y1="19" y2="21"/>
            <line clip-path="url(#clipPath2)" fill="none" x1="856" x2="856" y1="351" y2="349"/>
            <line clip-path="url(#clipPath2)" fill="none" x1="866" x2="866" y1="19" y2="21"/>
            <line clip-path="url(#clipPath2)" fill="none" x1="866" x2="866" y1="351" y2="349"/>
            <line clip-path="url(#clipPath2)" fill="none" x1="876" x2="876" y1="17" y2="21"/>
            <line clip-path="url(#clipPath2)" fill="none" x1="876" x2="876" y1="353" y2="349"/>
            <text x="860" font-size="10" y="13" clip-path="url(#clipPath2)" stroke="none" xml:space="preserve">10.0085</text>
            <text x="860" font-size="10" y="364" clip-path="url(#clipPath2)" stroke="none" xml:space="preserve">10.0085</text>
            <line clip-path="url(#clipPath2)" fill="none" x1="886" x2="886" y1="19" y2="21"/>
            <line clip-path="url(#clipPath2)" fill="none" x1="886" x2="886" y1="351" y2="349"/>
            <line clip-path="url(#clipPath2)" fill="none" x1="896" x2="896" y1="19" y2="21"/>
            <line clip-path="url(#clipPath2)" fill="none" x1="896" x2="896" y1="351" y2="349"/>
            <line clip-path="url(#clipPath2)" fill="none" x1="906" x2="906" y1="19" y2="21"/>
            <line clip-path="url(#clipPath2)" fill="none" x1="906" x2="906" y1="351" y2="349"/>
            <line clip-path="url(#clipPath2)" fill="none" x1="916" x2="916" y1="19" y2="21"/>
            <line clip-path="url(#clipPath2)" fill="none" x1="916" x2="916" y1="351" y2="349"/>
            <line clip-path="url(#clipPath2)" fill="none" x1="926" x2="926" y1="17" y2="21"/>
            <line clip-path="url(#clipPath2)" fill="none" x1="926" x2="926" y1="353" y2="349"/>
            <text x="910" font-size="10" y="13" clip-path="url(#clipPath2)" stroke="none" xml:space="preserve">10.0090</text>
            <text x="910" font-size="10" y="364" clip-path="url(#clipPath2)" stroke="none" xml:space="preserve">10.0090</text>
            <line clip-path="url(#clipPath2)" fill="none" x1="936" x2="936" y1="19" y2="21"/>
            <line clip-path="url(#clipPath2)" fill="none" x1="936" x2="936" y1="351" y2="349"/>
            <line clip-path="url(#clipPath2)" fill="none" x1="946" x2="946" y1="19" y2="21"/>
            <line clip-path="url(#clipPath2)" fill="none" x1="946" x2="946" y1="351" y2="349"/>
            <line clip-path="url(#clipPath2)" fill="none" x1="956" x2="956" y1="19" y2="21"/>
            <line clip-path="url(#clipPath2)" fill="none" x1="956" x2="956" y1="351" y2="349"/>
            <line clip-path="url(#clipPath2)" fill="none" x1="966" x2="966" y1="19" y2="21"/>
            <line clip-path="url(#clipPath2)" fill="none" x1="966" x2="966" y1="351" y2="349"/>
            <line clip-path="url(#clipPath2)" fill="none" x1="976" x2="976" y1="17" y2="21"/>
            <line clip-path="url(#clipPath2)" fill="none" x1="976" x2="976" y1="353" y2="349"/>
            <text x="960" font-size="10" y="13" clip-path="url(#clipPath2)" stroke="none" xml:space="preserve">10.0095</text>
            <text x="960" font-size="10" y="364" clip-path="url(#clipPath2)" stroke="none" xml:space="preserve">10.0095</text>
            <line clip-path="url(#clipPath2)" fill="none" x1="986" x2="986" y1="19" y2="21"/>
            <line clip-path="url(#clipPath2)" fill="none" x1="986" x2="986" y1="351" y2="349"/>
            <line clip-path="url(#clipPath2)" fill="none" x1="996" x2="996" y1="19" y2="21"/>
            <line clip-path="url(#clipPath2)" fill="none" x1="996" x2="996" y1="351" y2="349"/>
            <line clip-path="url(#clipPath2)" fill="none" x1="1006" x2="1006" y1="19" y2="21"/>
            <line clip-path="url(#clipPath2)" fill="none" x1="1006" x2="1006" y1="351" y2="349"/>
            <line clip-path="url(#clipPath2)" fill="none" x1="1016" x2="1016" y1="19" y2="21"/>
            <line clip-path="url(#clipPath2)" fill="none" x1="1016" x2="1016" y1="351" y2="349"/>
            <line clip-path="url(#clipPath2)" fill="none" x1="24" x2="24" y1="23" y2="347"/>
            <line clip-path="url(#clipPath2)" fill="none" x1="1029" x2="1029" y1="23" y2="347"/>
            <line clip-path="url(#clipPath2)" fill="none" x1="20" x2="24" y1="347" y2="347"/>
            <line clip-path="url(#clipPath2)" fill="none" x1="1033" x2="1029" y1="347" y2="347"/>
            <text x="14" font-size="10" y="351" clip-path="url(#clipPath2)" stroke="none" xml:space="preserve">0</text>
            <text x="1036" font-size="10" y="351" clip-path="url(#clipPath2)" stroke="none" xml:space="preserve">0</text>
            <line clip-path="url(#clipPath2)" fill="none" x1="22" x2="24" y1="306" y2="306"/>
            <line clip-path="url(#clipPath2)" fill="none" x1="1031" x2="1029" y1="306" y2="306"/>
            <line clip-path="url(#clipPath2)" fill="none" x1="20" x2="24" y1="266" y2="266"/>
            <line clip-path="url(#clipPath2)" fill="none" x1="1033" x2="1029" y1="266" y2="266"/>
            <text x="14" font-size="10" y="270" clip-path="url(#clipPath2)" stroke="none" xml:space="preserve">2</text>
            <text x="1036" font-size="10" y="270" clip-path="url(#clipPath2)" stroke="none" xml:space="preserve">2</text>
            <line clip-path="url(#clipPath2)" fill="none" x1="22" x2="24" y1="225" y2="225"/>
            <line clip-path="url(#clipPath2)" fill="none" x1="1031" x2="1029" y1="225" y2="225"/>
            <line clip-path="url(#clipPath2)" fill="none" x1="20" x2="24" y1="185" y2="185"/>
            <line clip-path="url(#clipPath2)" fill="none" x1="1033" x2="1029" y1="185" y2="185"/>
            <text x="14" font-size="10" y="189" clip-path="url(#clipPath2)" stroke="none" xml:space="preserve">4</text>
            <text x="1036" font-size="10" y="189" clip-path="url(#clipPath2)" stroke="none" xml:space="preserve">4</text>
            <line clip-path="url(#clipPath2)" fill="none" x1="22" x2="24" y1="144" y2="144"/>
            <line clip-path="url(#clipPath2)" fill="none" x1="1031" x2="1029" y1="144" y2="144"/>
            <line clip-path="url(#clipPath2)" fill="none" x1="20" x2="24" y1="104" y2="104"/>
            <line clip-path="url(#clipPath2)" fill="none" x1="1033" x2="1029" y1="104" y2="104"/>
            <text x="14" font-size="10" y="108" clip-path="url(#clipPath2)" stroke="none" xml:space="preserve">6</text>
            <text x="1036" font-size="10" y="108" clip-path="url(#clipPath2)" stroke="none" xml:space="preserve">6</text>
            <line clip-path="url(#clipPath2)" fill="none" x1="22" x2="24" y1="63" y2="63"/>
            <line clip-path="url(#clipPath2)" fill="none" x1="1031" x2="1029" y1="63" y2="63"/>
            <line clip-path="url(#clipPath2)" fill="none" x1="20" x2="24" y1="23" y2="23"/>
            <line clip-path="url(#clipPath2)" fill="none" x1="1033" x2="1029" y1="23" y2="23"/>
            <text x="14" font-size="10" y="27" clip-path="url(#clipPath2)" stroke="none" xml:space="preserve">8</text>
            <text x="1036" font-size="10" y="27" clip-path="url(#clipPath2)" stroke="none" xml:space="preserve">8</text>
        </g>
    </g>
</svg>
