<?xml version="1.0" encoding="UTF-8"?><svg xmlns="http://www.w3.org/2000/svg" xmlns:xlink="http://www.w3.org/1999/xlink" stroke-dasharray="none" shape-rendering="auto" font-family="'Dialog'" width="1053" text-rendering="auto" fill-opacity="1" contentScriptType="text/ecmascript" color-interpolation="auto" color-rendering="auto" preserveAspectRatio="xMidYMid meet" font-size="12" fill="black" stroke="black" image-rendering="auto" stroke-miterlimit="10" zoomAndPan="magnify" version="1.0" stroke-linecap="square" stroke-linejoin="miter" contentStyleType="text/css" font-style="normal" height="370" stroke-width="1" stroke-dashoffset="0" font-weight="normal" stroke-opacity="1">
    <!--Generated by the Batik Graphics2D SVG Generator-->
    <defs id="genericDefs"/>
    <g>
        <defs id="defs1">
            <clipPath clipPathUnits="userSpaceOnUse" id="clipPath1">
                <path d="M31 22 L1022 22 L1022 348 L31 348 L31 22 Z"/>
            </clipPath>
            <clipPath clipPathUnits="userSpaceOnUse" id="clipPath2">
                <path d="M-1 -1 L1054 -1 L1054 371 L-1 371 L-1 -1 Z"/>
            </clipPath>
        </defs>
        <g font-size="13" fill="white" text-rendering="geometricPrecision" stroke-linejoin="round" stroke="white" stroke-width="0" stroke-miterlimit="0">
            <rect x="32" y="23" clip-path="url(#clipPath1)" width="989" height="324" stroke="none"/>
        </g>
        <g stroke-linecap="butt" font-size="13" fill="rgb(204,204,204)" text-rendering="geometricPrecision" stroke-dasharray="3,3" stroke="rgb(204,204,204)">
            <line clip-path="url(#clipPath1)" fill="none" x1="32" x2="32" y1="23" y2="347"/>
            <line clip-path="url(#clipPath1)" fill="none" x1="130" x2="130" y1="23" y2="347"/>
            <line clip-path="url(#clipPath1)" fill="none" x1="229" x2="229" y1="23" y2="347"/>
            <line clip-path="url(#clipPath1)" fill="none" x1="328" x2="328" y1="23" y2="347"/>
            <line clip-path="url(#clipPath1)" fill="none" x1="427" x2="427" y1="23" y2="347"/>
            <line clip-path="url(#clipPath1)" fill="none" x1="526" x2="526" y1="23" y2="347"/>
            <line clip-path="url(#clipPath1)" fill="none" x1="625" x2="625" y1="23" y2="347"/>
            <line clip-path="url(#clipPath1)" fill="none" x1="724" x2="724" y1="23" y2="347"/>
            <line clip-path="url(#clipPath1)" fill="none" x1="823" x2="823" y1="23" y2="347"/>
            <line clip-path="url(#clipPath1)" fill="none" x1="922" x2="922" y1="23" y2="347"/>
            <line clip-path="url(#clipPath1)" fill="none" x1="32" x2="1021" y1="347" y2="347"/>
            <line clip-path="url(#clipPath1)" fill="none" x1="32" x2="1021" y1="260" y2="260"/>
            <line clip-path="url(#clipPath1)" fill="none" x1="32" x2="1021" y1="173" y2="173"/>
            <line clip-path="url(#clipPath1)" fill="none" x1="32" x2="1021" y1="86" y2="86"/>
            <rect x="53" y="206" clip-path="url(#clipPath1)" fill="rgb(0,0,139)" width="5" height="5" stroke="none"/>
            <rect x="53" y="101" clip-path="url(#clipPath1)" fill="rgb(0,0,139)" width="5" height="5" stroke="none"/>
            <rect x="76" y="206" clip-path="url(#clipPath1)" fill="rgb(0,0,139)" width="5" height="5" stroke="none"/>
            <rect x="76" y="171" clip-path="url(#clipPath1)" fill="rgb(0,0,139)" width="5" height="5" stroke="none"/>
            <rect x="99" y="206" clip-path="url(#clipPath1)" fill="rgb(0,0,139)" width="5" height="5" stroke="none"/>
            <rect x="99" y="136" clip-path="url(#clipPath1)" fill="rgb(0,0,139)" width="5" height="5" stroke="none"/>
            <rect x="122" y="206" clip-path="url(#clipPath1)" fill="rgb(0,0,139)" width="5" height="5" stroke="none"/>
            <rect x="122" y="136" clip-path="url(#clipPath1)" fill="rgb(0,0,139)" width="5" height="5" stroke="none"/>
            <rect x="146" y="206" clip-path="url(#clipPath1)" fill="rgb(0,0,139)" width="5" height="5" stroke="none"/>
            <rect x="146" y="171" clip-path="url(#clipPath1)" fill="rgb(0,0,139)" width="5" height="5" stroke="none"/>
            <rect x="146" y="101" clip-path="url(#clipPath1)" fill="rgb(0,0,139)" width="5" height="5" stroke="none"/>
            <rect x="169" y="206" clip-path="url(#clipPath1)" fill="rgb(0,0,139)" width="5" height="5" stroke="none"/>
            <rect x="169" y="136" clip-path="url(#clipPath1)" fill="rgb(0,0,139)" width="5" height="5" stroke="none"/>
            <rect x="192" y="206" clip-path="url(#clipPath1)" fill="rgb(0,0,139)" width="5" height="5" stroke="none"/>
            <rect x="192" y="136" clip-path="url(#clipPath1)" fill="rgb(0,0,139)" width="5" height="5" stroke="none"/>
            <rect x="215" y="206" clip-path="url(#clipPath1)" fill="rgb(0,0,139)" width="5" height="5" stroke="none"/>
            <rect x="215" y="136" clip-path="url(#clipPath1)" fill="rgb(0,0,139)" width="5" height="5" stroke="none"/>
            <rect x="238" y="206" clip-path="url(#clipPath1)" fill="rgb(0,0,139)" width="5" height="5" stroke="none"/>
            <rect x="238" y="136" clip-path="url(#clipPath1)" fill="rgb(0,0,139)" width="5" height="5" stroke="none"/>
            <rect x="262" y="206" clip-path="url(#clipPath1)" fill="rgb(0,0,139)" width="5" height="5" stroke="none"/>
            <rect x="262" y="136" clip-path="url(#clipPath1)" fill="rgb(0,0,139)" width="5" height="5" stroke="none"/>
            <rect x="285" y="206" clip-path="url(#clipPath1)" fill="rgb(0,0,139)" width="5" height="5" stroke="none"/>
            <rect x="285" y="171" clip-path="url(#clipPath1)" fill="rgb(0,0,139)" width="5" height="5" stroke="none"/>
            <rect x="308" y="206" clip-path="url(#clipPath1)" fill="rgb(0,0,139)" width="5" height="5" stroke="none"/>
            <rect x="308" y="136" clip-path="url(#clipPath1)" fill="rgb(0,0,139)" width="5" height="5" stroke="none"/>
            <rect x="331" y="206" clip-path="url(#clipPath1)" fill="rgb(0,0,139)" width="5" height="5" stroke="none"/>
            <rect x="331" y="136" clip-path="url(#clipPath1)" fill="rgb(0,0,139)" width="5" height="5" stroke="none"/>
            <rect x="355" y="206" clip-path="url(#clipPath1)" fill="rgb(0,0,139)" width="5" height="5" stroke="none"/>
            <rect x="355" y="171" clip-path="url(#clipPath1)" fill="rgb(0,0,139)" width="5" height="5" stroke="none"/>
            <rect x="378" y="206" clip-path="url(#clipPath1)" fill="rgb(0,0,139)" width="5" height="5" stroke="none"/>
            <rect x="401" y="206" clip-path="url(#clipPath1)" fill="rgb(0,0,139)" width="5" height="5" stroke="none"/>
            <rect x="401" y="136" clip-path="url(#clipPath1)" fill="rgb(0,0,139)" width="5" height="5" stroke="none"/>
            <rect x="424" y="206" clip-path="url(#clipPath1)" fill="rgb(0,0,139)" width="5" height="5" stroke="none"/>
            <rect x="424" y="136" clip-path="url(#clipPath1)" fill="rgb(0,0,139)" width="5" height="5" stroke="none"/>
            <rect x="447" y="206" clip-path="url(#clipPath1)" fill="rgb(0,0,139)" width="5" height="5" stroke="none"/>
            <rect x="471" y="206" clip-path="url(#clipPath1)" fill="rgb(0,0,139)" width="5" height="5" stroke="none"/>
            <rect x="494" y="206" clip-path="url(#clipPath1)" fill="rgb(0,0,139)" width="5" height="5" stroke="none"/>
            <rect x="494" y="171" clip-path="url(#clipPath1)" fill="rgb(0,0,139)" width="5" height="5" stroke="none"/>
            <rect x="517" y="206" clip-path="url(#clipPath1)" fill="rgb(0,0,139)" width="5" height="5" stroke="none"/>
            <rect x="517" y="136" clip-path="url(#clipPath1)" fill="rgb(0,0,139)" width="5" height="5" stroke="none"/>
            <rect x="540" y="206" clip-path="url(#clipPath1)" fill="rgb(0,0,139)" width="5" height="5" stroke="none"/>
            <rect x="540" y="171" clip-path="url(#clipPath1)" fill="rgb(0,0,139)" width="5" height="5" stroke="none"/>
            <rect x="540" y="101" clip-path="url(#clipPath1)" fill="rgb(0,0,139)" width="5" height="5" stroke="none"/>
            <rect x="564" y="206" clip-path="url(#clipPath1)" fill="rgb(0,0,139)" width="5" height="5" stroke="none"/>
            <rect x="564" y="136" clip-path="url(#clipPath1)" fill="rgb(0,0,139)" width="5" height="5" stroke="none"/>
            <rect x="587" y="206" clip-path="url(#clipPath1)" fill="rgb(0,0,139)" width="5" height="5" stroke="none"/>
            <rect x="610" y="206" clip-path="url(#clipPath1)" fill="rgb(0,0,139)" width="5" height="5" stroke="none"/>
            <rect x="633" y="206" clip-path="url(#clipPath1)" fill="rgb(0,0,139)" width="5" height="5" stroke="none"/>
            <rect x="633" y="171" clip-path="url(#clipPath1)" fill="rgb(0,0,139)" width="5" height="5" stroke="none"/>
            <rect x="656" y="206" clip-path="url(#clipPath1)" fill="rgb(0,0,139)" width="5" height="5" stroke="none"/>
            <rect x="680" y="206" clip-path="url(#clipPath1)" fill="rgb(0,0,139)" width="5" height="5" stroke="none"/>
            <rect x="680" y="136" clip-path="url(#clipPath1)" fill="rgb(0,0,139)" width="5" height="5" stroke="none"/>
            <rect x="703" y="206" clip-path="url(#clipPath1)" fill="rgb(0,0,139)" width="5" height="5" stroke="none"/>
            <rect x="703" y="171" clip-path="url(#clipPath1)" fill="rgb(0,0,139)" width="5" height="5" stroke="none"/>
            <rect x="726" y="206" clip-path="url(#clipPath1)" fill="rgb(0,0,139)" width="5" height="5" stroke="none"/>
            <rect x="726" y="171" clip-path="url(#clipPath1)" fill="rgb(0,0,139)" width="5" height="5" stroke="none"/>
            <rect x="749" y="206" clip-path="url(#clipPath1)" fill="rgb(0,0,139)" width="5" height="5" stroke="none"/>
            <rect x="749" y="136" clip-path="url(#clipPath1)" fill="rgb(0,0,139)" width="5" height="5" stroke="none"/>
            <rect x="773" y="206" clip-path="url(#clipPath1)" fill="rgb(0,0,139)" width="5" height="5" stroke="none"/>
            <rect x="773" y="171" clip-path="url(#clipPath1)" fill="rgb(0,0,139)" width="5" height="5" stroke="none"/>
            <rect x="796" y="206" clip-path="url(#clipPath1)" fill="rgb(0,0,139)" width="5" height="5" stroke="none"/>
            <rect x="796" y="136" clip-path="url(#clipPath1)" fill="rgb(0,0,139)" width="5" height="5" stroke="none"/>
            <rect x="819" y="206" clip-path="url(#clipPath1)" fill="rgb(0,0,139)" width="5" height="5" stroke="none"/>
            <rect x="819" y="136" clip-path="url(#clipPath1)" fill="rgb(0,0,139)" width="5" height="5" stroke="none"/>
            <rect x="842" y="206" clip-path="url(#clipPath1)" fill="rgb(0,0,139)" width="5" height="5" stroke="none"/>
            <rect x="842" y="171" clip-path="url(#clipPath1)" fill="rgb(0,0,139)" width="5" height="5" stroke="none"/>
            <rect x="865" y="206" clip-path="url(#clipPath1)" fill="rgb(0,0,139)" width="5" height="5" stroke="none"/>
            <rect x="865" y="136" clip-path="url(#clipPath1)" fill="rgb(0,0,139)" width="5" height="5" stroke="none"/>
            <rect x="889" y="206" clip-path="url(#clipPath1)" fill="rgb(0,0,139)" width="5" height="5" stroke="none"/>
            <rect x="889" y="136" clip-path="url(#clipPath1)" fill="rgb(0,0,139)" width="5" height="5" stroke="none"/>
            <rect x="912" y="206" clip-path="url(#clipPath1)" fill="rgb(0,0,139)" width="5" height="5" stroke="none"/>
            <rect x="912" y="136" clip-path="url(#clipPath1)" fill="rgb(0,0,139)" width="5" height="5" stroke="none"/>
            <rect x="935" y="206" clip-path="url(#clipPath1)" fill="rgb(0,0,139)" width="5" height="5" stroke="none"/>
            <rect x="958" y="206" clip-path="url(#clipPath1)" fill="rgb(0,0,139)" width="5" height="5" stroke="none"/>
            <rect x="958" y="136" clip-path="url(#clipPath1)" fill="rgb(0,0,139)" width="5" height="5" stroke="none"/>
            <rect x="982" y="206" clip-path="url(#clipPath1)" fill="rgb(0,0,139)" width="5" height="5" stroke="none"/>
            <rect x="982" y="136" clip-path="url(#clipPath1)" fill="rgb(0,0,139)" width="5" height="5" stroke="none"/>
            <rect x="1005" y="206" clip-path="url(#clipPath1)" fill="rgb(0,0,139)" width="5" height="5" stroke="none"/>
            <rect x="1005" y="171" clip-path="url(#clipPath1)" fill="rgb(0,0,139)" width="5" height="5" stroke="none"/>
            <rect x="1028" y="206" clip-path="url(#clipPath1)" fill="rgb(0,0,139)" width="5" height="5" stroke="none"/>
            <rect x="32" y="23" clip-path="url(#clipPath2)" fill="none" width="989" stroke-dasharray="none" height="324" stroke="black"/>
            <line clip-path="url(#clipPath2)" fill="none" x1="32" x2="1021" y1="21" y2="21" stroke-dasharray="none" stroke="black"/>
            <line clip-path="url(#clipPath2)" fill="none" x1="32" x2="1021" y1="349" y2="349" stroke-dasharray="none" stroke="black"/>
        </g>
        <g text-rendering="geometricPrecision" font-size="10" stroke-linecap="butt">
            <line clip-path="url(#clipPath2)" fill="none" x1="32" x2="32" y1="17" y2="21"/>
            <line clip-path="url(#clipPath2)" fill="none" x1="32" x2="32" y1="353" y2="349"/>
            <text xml:space="preserve" x="18" y="13" clip-path="url(#clipPath2)" stroke="none">10.000</text>
            <text xml:space="preserve" x="18" y="364" clip-path="url(#clipPath2)" stroke="none">10.000</text>
            <line clip-path="url(#clipPath2)" fill="none" x1="51" x2="51" y1="19" y2="21"/>
            <line clip-path="url(#clipPath2)" fill="none" x1="51" x2="51" y1="351" y2="349"/>
            <line clip-path="url(#clipPath2)" fill="none" x1="71" x2="71" y1="19" y2="21"/>
            <line clip-path="url(#clipPath2)" fill="none" x1="71" x2="71" y1="351" y2="349"/>
            <line clip-path="url(#clipPath2)" fill="none" x1="91" x2="91" y1="19" y2="21"/>
            <line clip-path="url(#clipPath2)" fill="none" x1="91" x2="91" y1="351" y2="349"/>
            <line clip-path="url(#clipPath2)" fill="none" x1="111" x2="111" y1="19" y2="21"/>
            <line clip-path="url(#clipPath2)" fill="none" x1="111" x2="111" y1="351" y2="349"/>
            <line clip-path="url(#clipPath2)" fill="none" x1="130" x2="130" y1="17" y2="21"/>
            <line clip-path="url(#clipPath2)" fill="none" x1="130" x2="130" y1="353" y2="349"/>
            <text xml:space="preserve" x="114" y="13" clip-path="url(#clipPath2)" stroke="none">10.0010</text>
            <text xml:space="preserve" x="114" y="364" clip-path="url(#clipPath2)" stroke="none">10.0010</text>
            <line clip-path="url(#clipPath2)" fill="none" x1="150" x2="150" y1="19" y2="21"/>
            <line clip-path="url(#clipPath2)" fill="none" x1="150" x2="150" y1="351" y2="349"/>
            <line clip-path="url(#clipPath2)" fill="none" x1="170" x2="170" y1="19" y2="21"/>
            <line clip-path="url(#clipPath2)" fill="none" x1="170" x2="170" y1="351" y2="349"/>
            <line clip-path="url(#clipPath2)" fill="none" x1="190" x2="190" y1="19" y2="21"/>
            <line clip-path="url(#clipPath2)" fill="none" x1="190" x2="190" y1="351" y2="349"/>
            <line clip-path="url(#clipPath2)" fill="none" x1="210" x2="210" y1="19" y2="21"/>
            <line clip-path="url(#clipPath2)" fill="none" x1="210" x2="210" y1="351" y2="349"/>
            <line clip-path="url(#clipPath2)" fill="none" x1="229" x2="229" y1="17" y2="21"/>
            <line clip-path="url(#clipPath2)" fill="none" x1="229" x2="229" y1="353" y2="349"/>
            <text xml:space="preserve" x="213" y="13" clip-path="url(#clipPath2)" stroke="none">10.0020</text>
            <text xml:space="preserve" x="213" y="364" clip-path="url(#clipPath2)" stroke="none">10.0020</text>
            <line clip-path="url(#clipPath2)" fill="none" x1="249" x2="249" y1="19" y2="21"/>
            <line clip-path="url(#clipPath2)" fill="none" x1="249" x2="249" y1="351" y2="349"/>
            <line clip-path="url(#clipPath2)" fill="none" x1="269" x2="269" y1="19" y2="21"/>
            <line clip-path="url(#clipPath2)" fill="none" x1="269" x2="269" y1="351" y2="349"/>
            <line clip-path="url(#clipPath2)" fill="none" x1="289" x2="289" y1="19" y2="21"/>
            <line clip-path="url(#clipPath2)" fill="none" x1="289" x2="289" y1="351" y2="349"/>
            <line clip-path="url(#clipPath2)" fill="none" x1="308" x2="308" y1="19" y2="21"/>
            <line clip-path="url(#clipPath2)" fill="none" x1="308" x2="308" y1="351" y2="349"/>
            <line clip-path="url(#clipPath2)" fill="none" x1="328" x2="328" y1="17" y2="21"/>
            <line clip-path="url(#clipPath2)" fill="none" x1="328" x2="328" y1="353" y2="349"/>
            <text xml:space="preserve" x="312" y="13" clip-path="url(#clipPath2)" stroke="none">10.0030</text>
            <text xml:space="preserve" x="312" y="364" clip-path="url(#clipPath2)" stroke="none">10.0030</text>
            <line clip-path="url(#clipPath2)" fill="none" x1="348" x2="348" y1="19" y2="21"/>
            <line clip-path="url(#clipPath2)" fill="none" x1="348" x2="348" y1="351" y2="349"/>
            <line clip-path="url(#clipPath2)" fill="none" x1="368" x2="368" y1="19" y2="21"/>
            <line clip-path="url(#clipPath2)" fill="none" x1="368" x2="368" y1="351" y2="349"/>
            <line clip-path="url(#clipPath2)" fill="none" x1="388" x2="388" y1="19" y2="21"/>
            <line clip-path="url(#clipPath2)" fill="none" x1="388" x2="388" y1="351" y2="349"/>
            <line clip-path="url(#clipPath2)" fill="none" x1="407" x2="407" y1="19" y2="21"/>
            <line clip-path="url(#clipPath2)" fill="none" x1="407" x2="407" y1="351" y2="349"/>
            <line clip-path="url(#clipPath2)" fill="none" x1="427" x2="427" y1="17" y2="21"/>
            <line clip-path="url(#clipPath2)" fill="none" x1="427" x2="427" y1="353" y2="349"/>
            <text xml:space="preserve" x="411" y="13" clip-path="url(#clipPath2)" stroke="none">10.0040</text>
            <text xml:space="preserve" x="411" y="364" clip-path="url(#clipPath2)" stroke="none">10.0040</text>
            <line clip-path="url(#clipPath2)" fill="none" x1="447" x2="447" y1="19" y2="21"/>
            <line clip-path="url(#clipPath2)" fill="none" x1="447" x2="447" y1="351" y2="349"/>
            <line clip-path="url(#clipPath2)" fill="none" x1="467" x2="467" y1="19" y2="21"/>
            <line clip-path="url(#clipPath2)" fill="none" x1="467" x2="467" y1="351" y2="349"/>
            <line clip-path="url(#clipPath2)" fill="none" x1="486" x2="486" y1="19" y2="21"/>
            <line clip-path="url(#clipPath2)" fill="none" x1="486" x2="486" y1="351" y2="349"/>
            <line clip-path="url(#clipPath2)" fill="none" x1="506" x2="506" y1="19" y2="21"/>
            <line clip-path="url(#clipPath2)" fill="none" x1="506" x2="506" y1="351" y2="349"/>
            <line clip-path="url(#clipPath2)" fill="none" x1="526" x2="526" y1="17" y2="21"/>
            <line clip-path="url(#clipPath2)" fill="none" x1="526" x2="526" y1="353" y2="349"/>
            <text xml:space="preserve" x="510" y="13" clip-path="url(#clipPath2)" stroke="none">10.0050</text>
            <text xml:space="preserve" x="510" y="364" clip-path="url(#clipPath2)" stroke="none">10.0050</text>
            <line clip-path="url(#clipPath2)" fill="none" x1="546" x2="546" y1="19" y2="21"/>
            <line clip-path="url(#clipPath2)" fill="none" x1="546" x2="546" y1="351" y2="349"/>
            <line clip-path="url(#clipPath2)" fill="none" x1="566" x2="566" y1="19" y2="21"/>
            <line clip-path="url(#clipPath2)" fill="none" x1="566" x2="566" y1="351" y2="349"/>
            <line clip-path="url(#clipPath2)" fill="none" x1="585" x2="585" y1="19" y2="21"/>
            <line clip-path="url(#clipPath2)" fill="none" x1="585" x2="585" y1="351" y2="349"/>
            <line clip-path="url(#clipPath2)" fill="none" x1="605" x2="605" y1="19" y2="21"/>
            <line clip-path="url(#clipPath2)" fill="none" x1="605" x2="605" y1="351" y2="349"/>
            <line clip-path="url(#clipPath2)" fill="none" x1="625" x2="625" y1="17" y2="21"/>
            <line clip-path="url(#clipPath2)" fill="none" x1="625" x2="625" y1="353" y2="349"/>
            <text xml:space="preserve" x="609" y="13" clip-path="url(#clipPath2)" stroke="none">10.0060</text>
            <text xml:space="preserve" x="609" y="364" clip-path="url(#clipPath2)" stroke="none">10.0060</text>
            <line clip-path="url(#clipPath2)" fill="none" x1="645" x2="645" y1="19" y2="21"/>
            <line clip-path="url(#clipPath2)" fill="none" x1="645" x2="645" y1="351" y2="349"/>
            <line clip-path="url(#clipPath2)" fill="none" x1="664" x2="664" y1="19" y2="21"/>
            <line clip-path="url(#clipPath2)" fill="none" x1="664" x2="664" y1="351" y2="349"/>
            <line clip-path="url(#clipPath2)" fill="none" x1="684" x2="684" y1="19" y2="21"/>
            <line clip-path="url(#clipPath2)" fill="none" x1="684" x2="684" y1="351" y2="349"/>
            <line clip-path="url(#clipPath2)" fill="none" x1="704" x2="704" y1="19" y2="21"/>
            <line clip-path="url(#clipPath2)" fill="none" x1="704" x2="704" y1="351" y2="349"/>
            <line clip-path="url(#clipPath2)" fill="none" x1="724" x2="724" y1="17" y2="21"/>
            <line clip-path="url(#clipPath2)" fill="none" x1="724" x2="724" y1="353" y2="349"/>
            <text xml:space="preserve" x="708" y="13" clip-path="url(#clipPath2)" stroke="none">10.0070</text>
            <text xml:space="preserve" x="708" y="364" clip-path="url(#clipPath2)" stroke="none">10.0070</text>
            <line clip-path="url(#clipPath2)" fill="none" x1="744" x2="744" y1="19" y2="21"/>
            <line clip-path="url(#clipPath2)" fill="none" x1="744" x2="744" y1="351" y2="349"/>
            <line clip-path="url(#clipPath2)" fill="none" x1="763" x2="763" y1="19" y2="21"/>
            <line clip-path="url(#clipPath2)" fill="none" x1="763" x2="763" y1="351" y2="349"/>
            <line clip-path="url(#clipPath2)" fill="none" x1="783" x2="783" y1="19" y2="21"/>
            <line clip-path="url(#clipPath2)" fill="none" x1="783" x2="783" y1="351" y2="349"/>
            <line clip-path="url(#clipPath2)" fill="none" x1="803" x2="803" y1="19" y2="21"/>
            <line clip-path="url(#clipPath2)" fill="none" x1="803" x2="803" y1="351" y2="349"/>
            <line clip-path="url(#clipPath2)" fill="none" x1="823" x2="823" y1="17" y2="21"/>
            <line clip-path="url(#clipPath2)" fill="none" x1="823" x2="823" y1="353" y2="349"/>
            <text xml:space="preserve" x="807" y="13" clip-path="url(#clipPath2)" stroke="none">10.0080</text>
            <text xml:space="preserve" x="807" y="364" clip-path="url(#clipPath2)" stroke="none">10.0080</text>
            <line clip-path="url(#clipPath2)" fill="none" x1="842" x2="842" y1="19" y2="21"/>
            <line clip-path="url(#clipPath2)" fill="none" x1="842" x2="842" y1="351" y2="349"/>
            <line clip-path="url(#clipPath2)" fill="none" x1="862" x2="862" y1="19" y2="21"/>
            <line clip-path="url(#clipPath2)" fill="none" x1="862" x2="862" y1="351" y2="349"/>
            <line clip-path="url(#clipPath2)" fill="none" x1="882" x2="882" y1="19" y2="21"/>
            <line clip-path="url(#clipPath2)" fill="none" x1="882" x2="882" y1="351" y2="349"/>
            <line clip-path="url(#clipPath2)" fill="none" x1="902" x2="902" y1="19" y2="21"/>
            <line clip-path="url(#clipPath2)" fill="none" x1="902" x2="902" y1="351" y2="349"/>
            <line clip-path="url(#clipPath2)" fill="none" x1="922" x2="922" y1="17" y2="21"/>
            <line clip-path="url(#clipPath2)" fill="none" x1="922" x2="922" y1="353" y2="349"/>
            <text xml:space="preserve" x="906" y="13" clip-path="url(#clipPath2)" stroke="none">10.0090</text>
            <text xml:space="preserve" x="906" y="364" clip-path="url(#clipPath2)" stroke="none">10.0090</text>
            <line clip-path="url(#clipPath2)" fill="none" x1="941" x2="941" y1="19" y2="21"/>
            <line clip-path="url(#clipPath2)" fill="none" x1="941" x2="941" y1="351" y2="349"/>
            <line clip-path="url(#clipPath2)" fill="none" x1="961" x2="961" y1="19" y2="21"/>
            <line clip-path="url(#clipPath2)" fill="none" x1="961" x2="961" y1="351" y2="349"/>
            <line clip-path="url(#clipPath2)" fill="none" x1="981" x2="981" y1="19" y2="21"/>
            <line clip-path="url(#clipPath2)" fill="none" x1="981" x2="981" y1="351" y2="349"/>
            <line clip-path="url(#clipPath2)" fill="none" x1="1001" x2="1001" y1="19" y2="21"/>
            <line clip-path="url(#clipPath2)" fill="none" x1="1001" x2="1001" y1="351" y2="349"/>
            <line clip-path="url(#clipPath2)" fill="none" x1="30" x2="30" y1="23" y2="347"/>
            <line clip-path="url(#clipPath2)" fill="none" x1="1023" x2="1023" y1="23" y2="347"/>
            <line clip-path="url(#clipPath2)" fill="none" x1="26" x2="30" y1="347" y2="347"/>
            <line clip-path="url(#clipPath2)" fill="none" x1="1027" x2="1023" y1="347" y2="347"/>
            <text xml:space="preserve" x="20" y="351" clip-path="url(#clipPath2)" stroke="none">0</text>
            <text xml:space="preserve" x="1030" y="351" clip-path="url(#clipPath2)" stroke="none">0</text>
            <line clip-path="url(#clipPath2)" fill="none" x1="28" x2="30" y1="329" y2="329"/>
            <line clip-path="url(#clipPath2)" fill="none" x1="1025" x2="1023" y1="329" y2="329"/>
            <line clip-path="url(#clipPath2)" fill="none" x1="28" x2="30" y1="312" y2="312"/>
            <line clip-path="url(#clipPath2)" fill="none" x1="1025" x2="1023" y1="312" y2="312"/>
            <line clip-path="url(#clipPath2)" fill="none" x1="28" x2="30" y1="294" y2="294"/>
            <line clip-path="url(#clipPath2)" fill="none" x1="1025" x2="1023" y1="294" y2="294"/>
            <line clip-path="url(#clipPath2)" fill="none" x1="28" x2="30" y1="277" y2="277"/>
            <line clip-path="url(#clipPath2)" fill="none" x1="1025" x2="1023" y1="277" y2="277"/>
            <line clip-path="url(#clipPath2)" fill="none" x1="26" x2="30" y1="260" y2="260"/>
            <line clip-path="url(#clipPath2)" fill="none" x1="1027" x2="1023" y1="260" y2="260"/>
            <text xml:space="preserve" x="10" y="264" clip-path="url(#clipPath2)" stroke="none">100</text>
            <text xml:space="preserve" x="1030" y="264" clip-path="url(#clipPath2)" stroke="none">100</text>
            <line clip-path="url(#clipPath2)" fill="none" x1="28" x2="30" y1="242" y2="242"/>
            <line clip-path="url(#clipPath2)" fill="none" x1="1025" x2="1023" y1="242" y2="242"/>
            <line clip-path="url(#clipPath2)" fill="none" x1="28" x2="30" y1="225" y2="225"/>
            <line clip-path="url(#clipPath2)" fill="none" x1="1025" x2="1023" y1="225" y2="225"/>
            <line clip-path="url(#clipPath2)" fill="none" x1="28" x2="30" y1="208" y2="208"/>
            <line clip-path="url(#clipPath2)" fill="none" x1="1025" x2="1023" y1="208" y2="208"/>
            <line clip-path="url(#clipPath2)" fill="none" x1="28" x2="30" y1="190" y2="190"/>
            <line clip-path="url(#clipPath2)" fill="none" x1="1025" x2="1023" y1="190" y2="190"/>
            <line clip-path="url(#clipPath2)" fill="none" x1="26" x2="30" y1="173" y2="173"/>
            <line clip-path="url(#clipPath2)" fill="none" x1="1027" x2="1023" y1="173" y2="173"/>
            <text xml:space="preserve" x="10" y="177" clip-path="url(#clipPath2)" stroke="none">200</text>
            <text xml:space="preserve" x="1030" y="177" clip-path="url(#clipPath2)" stroke="none">200</text>
            <line clip-path="url(#clipPath2)" fill="none" x1="28" x2="30" y1="156" y2="156"/>
            <line clip-path="url(#clipPath2)" fill="none" x1="1025" x2="1023" y1="156" y2="156"/>
            <line clip-path="url(#clipPath2)" fill="none" x1="28" x2="30" y1="138" y2="138"/>
            <line clip-path="url(#clipPath2)" fill="none" x1="1025" x2="1023" y1="138" y2="138"/>
            <line clip-path="url(#clipPath2)" fill="none" x1="28" x2="30" y1="121" y2="121"/>
            <line clip-path="url(#clipPath2)" fill="none" x1="1025" x2="1023" y1="121" y2="121"/>
            <line clip-path="url(#clipPath2)" fill="none" x1="28" x2="30" y1="103" y2="103"/>
            <line clip-path="url(#clipPath2)" fill="none" x1="1025" x2="1023" y1="103" y2="103"/>
            <line clip-path="url(#clipPath2)" fill="none" x1="26" x2="30" y1="86" y2="86"/>
            <line clip-path="url(#clipPath2)" fill="none" x1="1027" x2="1023" y1="86" y2="86"/>
            <text xml:space="preserve" x="10" y="90" clip-path="url(#clipPath2)" stroke="none">300</text>
            <text xml:space="preserve" x="1030" y="90" clip-path="url(#clipPath2)" stroke="none">300</text>
            <line clip-path="url(#clipPath2)" fill="none" x1="28" x2="30" y1="69" y2="69"/>
            <line clip-path="url(#clipPath2)" fill="none" x1="1025" x2="1023" y1="69" y2="69"/>
            <line clip-path="url(#clipPath2)" fill="none" x1="28" x2="30" y1="51" y2="51"/>
            <line clip-path="url(#clipPath2)" fill="none" x1="1025" x2="1023" y1="51" y2="51"/>
            <line clip-path="url(#clipPath2)" fill="none" x1="28" x2="30" y1="34" y2="34"/>
            <line clip-path="url(#clipPath2)" fill="none" x1="1025" x2="1023" y1="34" y2="34"/>
        </g>
    </g>
</svg>
