<?xml version="1.0" encoding="UTF-8"?><svg xmlns="http://www.w3.org/2000/svg" xmlns:xlink="http://www.w3.org/1999/xlink" stroke-dasharray="none" shape-rendering="auto" font-family="'Dialog'" width="1053" text-rendering="auto" fill-opacity="1" contentScriptType="text/ecmascript" color-interpolation="auto" color-rendering="auto" preserveAspectRatio="xMidYMid meet" font-size="12" fill="black" stroke="black" image-rendering="auto" stroke-miterlimit="10" zoomAndPan="magnify" version="1.0" stroke-linecap="square" stroke-linejoin="miter" contentStyleType="text/css" font-style="normal" height="370" stroke-width="1" stroke-dashoffset="0" font-weight="normal" stroke-opacity="1">
    <!--Generated by the Batik Graphics2D SVG Generator-->
    <defs id="genericDefs"/>
    <g>
        <defs id="defs1">
            <clipPath clipPathUnits="userSpaceOnUse" id="clipPath1">
                <path d="M25 22 L1028 22 L1028 348 L25 348 L25 22 Z"/>
            </clipPath>
            <clipPath clipPathUnits="userSpaceOnUse" id="clipPath2">
                <path d="M-1 -1 L1054 -1 L1054 371 L-1 371 L-1 -1 Z"/>
            </clipPath>
        </defs>
        <g font-size="13" fill="white" text-rendering="geometricPrecision" stroke-linejoin="round" stroke="white" stroke-width="0" stroke-miterlimit="0">
            <rect x="26" y="23" clip-path="url(#clipPath1)" width="1001" height="324" stroke="none"/>
        </g>
        <g stroke-linecap="butt" font-size="13" fill="rgb(204,204,204)" text-rendering="geometricPrecision" stroke-dasharray="3,3" stroke="rgb(204,204,204)">
            <line clip-path="url(#clipPath1)" fill="none" x1="26" x2="26" y1="23" y2="347"/>
            <line clip-path="url(#clipPath1)" fill="none" x1="76" x2="76" y1="23" y2="347"/>
            <line clip-path="url(#clipPath1)" fill="none" x1="126" x2="126" y1="23" y2="347"/>
            <line clip-path="url(#clipPath1)" fill="none" x1="176" x2="176" y1="23" y2="347"/>
            <line clip-path="url(#clipPath1)" fill="none" x1="226" x2="226" y1="23" y2="347"/>
            <line clip-path="url(#clipPath1)" fill="none" x1="276" x2="276" y1="23" y2="347"/>
            <line clip-path="url(#clipPath1)" fill="none" x1="326" x2="326" y1="23" y2="347"/>
            <line clip-path="url(#clipPath1)" fill="none" x1="376" x2="376" y1="23" y2="347"/>
            <line clip-path="url(#clipPath1)" fill="none" x1="426" x2="426" y1="23" y2="347"/>
            <line clip-path="url(#clipPath1)" fill="none" x1="476" x2="476" y1="23" y2="347"/>
            <line clip-path="url(#clipPath1)" fill="none" x1="526" x2="526" y1="23" y2="347"/>
            <line clip-path="url(#clipPath1)" fill="none" x1="576" x2="576" y1="23" y2="347"/>
            <line clip-path="url(#clipPath1)" fill="none" x1="626" x2="626" y1="23" y2="347"/>
            <line clip-path="url(#clipPath1)" fill="none" x1="676" x2="676" y1="23" y2="347"/>
            <line clip-path="url(#clipPath1)" fill="none" x1="726" x2="726" y1="23" y2="347"/>
            <line clip-path="url(#clipPath1)" fill="none" x1="776" x2="776" y1="23" y2="347"/>
            <line clip-path="url(#clipPath1)" fill="none" x1="826" x2="826" y1="23" y2="347"/>
            <line clip-path="url(#clipPath1)" fill="none" x1="876" x2="876" y1="23" y2="347"/>
            <line clip-path="url(#clipPath1)" fill="none" x1="926" x2="926" y1="23" y2="347"/>
            <line clip-path="url(#clipPath1)" fill="none" x1="976" x2="976" y1="23" y2="347"/>
            <line clip-path="url(#clipPath1)" fill="none" x1="26" x2="1027" y1="347" y2="347"/>
            <line clip-path="url(#clipPath1)" fill="none" x1="26" x2="1027" y1="225" y2="225"/>
            <line clip-path="url(#clipPath1)" fill="none" x1="26" x2="1027" y1="104" y2="104"/>
            <rect x="52" y="102" clip-path="url(#clipPath1)" fill="rgb(0,0,139)" width="5" height="5" stroke="none"/>
            <rect x="81" y="102" clip-path="url(#clipPath1)" fill="rgb(0,0,139)" width="5" height="5" stroke="none"/>
            <rect x="109" y="102" clip-path="url(#clipPath1)" fill="rgb(0,0,139)" width="5" height="5" stroke="none"/>
            <rect x="138" y="102" clip-path="url(#clipPath1)" fill="rgb(0,0,139)" width="5" height="5" stroke="none"/>
            <rect x="166" y="102" clip-path="url(#clipPath1)" fill="rgb(0,0,139)" width="5" height="5" stroke="none"/>
            <rect x="195" y="102" clip-path="url(#clipPath1)" fill="rgb(0,0,139)" width="5" height="5" stroke="none"/>
            <rect x="223" y="102" clip-path="url(#clipPath1)" fill="rgb(0,0,139)" width="5" height="5" stroke="none"/>
            <rect x="252" y="102" clip-path="url(#clipPath1)" fill="rgb(0,0,139)" width="5" height="5" stroke="none"/>
            <rect x="280" y="102" clip-path="url(#clipPath1)" fill="rgb(0,0,139)" width="5" height="5" stroke="none"/>
            <rect x="309" y="102" clip-path="url(#clipPath1)" fill="rgb(0,0,139)" width="5" height="5" stroke="none"/>
            <rect x="337" y="102" clip-path="url(#clipPath1)" fill="rgb(0,0,139)" width="5" height="5" stroke="none"/>
            <rect x="366" y="102" clip-path="url(#clipPath1)" fill="rgb(0,0,139)" width="5" height="5" stroke="none"/>
            <rect x="394" y="102" clip-path="url(#clipPath1)" fill="rgb(0,0,139)" width="5" height="5" stroke="none"/>
            <rect x="423" y="102" clip-path="url(#clipPath1)" fill="rgb(0,0,139)" width="5" height="5" stroke="none"/>
            <rect x="451" y="102" clip-path="url(#clipPath1)" fill="rgb(0,0,139)" width="5" height="5" stroke="none"/>
            <rect x="480" y="102" clip-path="url(#clipPath1)" fill="rgb(0,0,139)" width="5" height="5" stroke="none"/>
            <rect x="508" y="102" clip-path="url(#clipPath1)" fill="rgb(0,0,139)" width="5" height="5" stroke="none"/>
            <rect x="537" y="102" clip-path="url(#clipPath1)" fill="rgb(0,0,139)" width="5" height="5" stroke="none"/>
            <rect x="565" y="102" clip-path="url(#clipPath1)" fill="rgb(0,0,139)" width="5" height="5" stroke="none"/>
            <rect x="594" y="102" clip-path="url(#clipPath1)" fill="rgb(0,0,139)" width="5" height="5" stroke="none"/>
            <rect x="622" y="102" clip-path="url(#clipPath1)" fill="rgb(0,0,139)" width="5" height="5" stroke="none"/>
            <rect x="651" y="102" clip-path="url(#clipPath1)" fill="rgb(0,0,139)" width="5" height="5" stroke="none"/>
            <rect x="679" y="102" clip-path="url(#clipPath1)" fill="rgb(0,0,139)" width="5" height="5" stroke="none"/>
            <rect x="708" y="102" clip-path="url(#clipPath1)" fill="rgb(0,0,139)" width="5" height="5" stroke="none"/>
            <rect x="736" y="102" clip-path="url(#clipPath1)" fill="rgb(0,0,139)" width="5" height="5" stroke="none"/>
            <rect x="765" y="102" clip-path="url(#clipPath1)" fill="rgb(0,0,139)" width="5" height="5" stroke="none"/>
            <rect x="793" y="102" clip-path="url(#clipPath1)" fill="rgb(0,0,139)" width="5" height="5" stroke="none"/>
            <rect x="822" y="102" clip-path="url(#clipPath1)" fill="rgb(0,0,139)" width="5" height="5" stroke="none"/>
            <rect x="850" y="102" clip-path="url(#clipPath1)" fill="rgb(0,0,139)" width="5" height="5" stroke="none"/>
            <rect x="879" y="102" clip-path="url(#clipPath1)" fill="rgb(0,0,139)" width="5" height="5" stroke="none"/>
            <rect x="907" y="102" clip-path="url(#clipPath1)" fill="rgb(0,0,139)" width="5" height="5" stroke="none"/>
            <rect x="936" y="102" clip-path="url(#clipPath1)" fill="rgb(0,0,139)" width="5" height="5" stroke="none"/>
            <rect x="964" y="102" clip-path="url(#clipPath1)" fill="rgb(0,0,139)" width="5" height="5" stroke="none"/>
            <rect x="993" y="102" clip-path="url(#clipPath1)" fill="rgb(0,0,139)" width="5" height="5" stroke="none"/>
            <rect x="1021" y="102" clip-path="url(#clipPath1)" fill="rgb(0,0,139)" width="5" height="5" stroke="none"/>
            <rect x="1050" y="102" clip-path="url(#clipPath1)" fill="rgb(0,0,139)" width="5" height="5" stroke="none"/>
            <rect x="26" y="23" clip-path="url(#clipPath2)" fill="none" width="1001" stroke-dasharray="none" height="324" stroke="black"/>
            <line clip-path="url(#clipPath2)" fill="none" x1="26" x2="1027" y1="21" y2="21" stroke-dasharray="none" stroke="black"/>
            <line clip-path="url(#clipPath2)" fill="none" x1="26" x2="1027" y1="349" y2="349" stroke-dasharray="none" stroke="black"/>
        </g>
        <g text-rendering="geometricPrecision" font-size="10" stroke-linecap="butt">
            <line clip-path="url(#clipPath2)" fill="none" x1="26" x2="26" y1="17" y2="21"/>
            <line clip-path="url(#clipPath2)" fill="none" x1="26" x2="26" y1="353" y2="349"/>
            <text xml:space="preserve" x="12" y="13" clip-path="url(#clipPath2)" stroke="none">10.000</text>
            <text xml:space="preserve" x="12" y="364" clip-path="url(#clipPath2)" stroke="none">10.000</text>
            <line clip-path="url(#clipPath2)" fill="none" x1="36" x2="36" y1="19" y2="21"/>
            <line clip-path="url(#clipPath2)" fill="none" x1="36" x2="36" y1="351" y2="349"/>
            <line clip-path="url(#clipPath2)" fill="none" x1="46" x2="46" y1="19" y2="21"/>
            <line clip-path="url(#clipPath2)" fill="none" x1="46" x2="46" y1="351" y2="349"/>
            <line clip-path="url(#clipPath2)" fill="none" x1="56" x2="56" y1="19" y2="21"/>
            <line clip-path="url(#clipPath2)" fill="none" x1="56" x2="56" y1="351" y2="349"/>
            <line clip-path="url(#clipPath2)" fill="none" x1="66" x2="66" y1="19" y2="21"/>
            <line clip-path="url(#clipPath2)" fill="none" x1="66" x2="66" y1="351" y2="349"/>
            <line clip-path="url(#clipPath2)" fill="none" x1="76" x2="76" y1="17" y2="21"/>
            <line clip-path="url(#clipPath2)" fill="none" x1="76" x2="76" y1="353" y2="349"/>
            <text xml:space="preserve" x="60" y="13" clip-path="url(#clipPath2)" stroke="none">10.0005</text>
            <text xml:space="preserve" x="60" y="364" clip-path="url(#clipPath2)" stroke="none">10.0005</text>
            <line clip-path="url(#clipPath2)" fill="none" x1="86" x2="86" y1="19" y2="21"/>
            <line clip-path="url(#clipPath2)" fill="none" x1="86" x2="86" y1="351" y2="349"/>
            <line clip-path="url(#clipPath2)" fill="none" x1="96" x2="96" y1="19" y2="21"/>
            <line clip-path="url(#clipPath2)" fill="none" x1="96" x2="96" y1="351" y2="349"/>
            <line clip-path="url(#clipPath2)" fill="none" x1="106" x2="106" y1="19" y2="21"/>
            <line clip-path="url(#clipPath2)" fill="none" x1="106" x2="106" y1="351" y2="349"/>
            <line clip-path="url(#clipPath2)" fill="none" x1="116" x2="116" y1="19" y2="21"/>
            <line clip-path="url(#clipPath2)" fill="none" x1="116" x2="116" y1="351" y2="349"/>
            <line clip-path="url(#clipPath2)" fill="none" x1="126" x2="126" y1="17" y2="21"/>
            <line clip-path="url(#clipPath2)" fill="none" x1="126" x2="126" y1="353" y2="349"/>
            <text xml:space="preserve" x="110" y="13" clip-path="url(#clipPath2)" stroke="none">10.0010</text>
            <text xml:space="preserve" x="110" y="364" clip-path="url(#clipPath2)" stroke="none">10.0010</text>
            <line clip-path="url(#clipPath2)" fill="none" x1="136" x2="136" y1="19" y2="21"/>
            <line clip-path="url(#clipPath2)" fill="none" x1="136" x2="136" y1="351" y2="349"/>
            <line clip-path="url(#clipPath2)" fill="none" x1="146" x2="146" y1="19" y2="21"/>
            <line clip-path="url(#clipPath2)" fill="none" x1="146" x2="146" y1="351" y2="349"/>
            <line clip-path="url(#clipPath2)" fill="none" x1="156" x2="156" y1="19" y2="21"/>
            <line clip-path="url(#clipPath2)" fill="none" x1="156" x2="156" y1="351" y2="349"/>
            <line clip-path="url(#clipPath2)" fill="none" x1="166" x2="166" y1="19" y2="21"/>
            <line clip-path="url(#clipPath2)" fill="none" x1="166" x2="166" y1="351" y2="349"/>
            <line clip-path="url(#clipPath2)" fill="none" x1="176" x2="176" y1="17" y2="21"/>
            <line clip-path="url(#clipPath2)" fill="none" x1="176" x2="176" y1="353" y2="349"/>
            <text xml:space="preserve" x="160" y="13" clip-path="url(#clipPath2)" stroke="none">10.0015</text>
            <text xml:space="preserve" x="160" y="364" clip-path="url(#clipPath2)" stroke="none">10.0015</text>
            <line clip-path="url(#clipPath2)" fill="none" x1="186" x2="186" y1="19" y2="21"/>
            <line clip-path="url(#clipPath2)" fill="none" x1="186" x2="186" y1="351" y2="349"/>
            <line clip-path="url(#clipPath2)" fill="none" x1="196" x2="196" y1="19" y2="21"/>
            <line clip-path="url(#clipPath2)" fill="none" x1="196" x2="196" y1="351" y2="349"/>
            <line clip-path="url(#clipPath2)" fill="none" x1="206" x2="206" y1="19" y2="21"/>
            <line clip-path="url(#clipPath2)" fill="none" x1="206" x2="206" y1="351" y2="349"/>
            <line clip-path="url(#clipPath2)" fill="none" x1="216" x2="216" y1="19" y2="21"/>
            <line clip-path="url(#clipPath2)" fill="none" x1="216" x2="216" y1="351" y2="349"/>
            <line clip-path="url(#clipPath2)" fill="none" x1="226" x2="226" y1="17" y2="21"/>
            <line clip-path="url(#clipPath2)" fill="none" x1="226" x2="226" y1="353" y2="349"/>
            <text xml:space="preserve" x="210" y="13" clip-path="url(#clipPath2)" stroke="none">10.0020</text>
            <text xml:space="preserve" x="210" y="364" clip-path="url(#clipPath2)" stroke="none">10.0020</text>
            <line clip-path="url(#clipPath2)" fill="none" x1="236" x2="236" y1="19" y2="21"/>
            <line clip-path="url(#clipPath2)" fill="none" x1="236" x2="236" y1="351" y2="349"/>
            <line clip-path="url(#clipPath2)" fill="none" x1="246" x2="246" y1="19" y2="21"/>
            <line clip-path="url(#clipPath2)" fill="none" x1="246" x2="246" y1="351" y2="349"/>
            <line clip-path="url(#clipPath2)" fill="none" x1="256" x2="256" y1="19" y2="21"/>
            <line clip-path="url(#clipPath2)" fill="none" x1="256" x2="256" y1="351" y2="349"/>
            <line clip-path="url(#clipPath2)" fill="none" x1="266" x2="266" y1="19" y2="21"/>
            <line clip-path="url(#clipPath2)" fill="none" x1="266" x2="266" y1="351" y2="349"/>
            <line clip-path="url(#clipPath2)" fill="none" x1="276" x2="276" y1="17" y2="21"/>
            <line clip-path="url(#clipPath2)" fill="none" x1="276" x2="276" y1="353" y2="349"/>
            <text xml:space="preserve" x="260" y="13" clip-path="url(#clipPath2)" stroke="none">10.0025</text>
            <text xml:space="preserve" x="260" y="364" clip-path="url(#clipPath2)" stroke="none">10.0025</text>
            <line clip-path="url(#clipPath2)" fill="none" x1="286" x2="286" y1="19" y2="21"/>
            <line clip-path="url(#clipPath2)" fill="none" x1="286" x2="286" y1="351" y2="349"/>
            <line clip-path="url(#clipPath2)" fill="none" x1="296" x2="296" y1="19" y2="21"/>
            <line clip-path="url(#clipPath2)" fill="none" x1="296" x2="296" y1="351" y2="349"/>
            <line clip-path="url(#clipPath2)" fill="none" x1="306" x2="306" y1="19" y2="21"/>
            <line clip-path="url(#clipPath2)" fill="none" x1="306" x2="306" y1="351" y2="349"/>
            <line clip-path="url(#clipPath2)" fill="none" x1="316" x2="316" y1="19" y2="21"/>
            <line clip-path="url(#clipPath2)" fill="none" x1="316" x2="316" y1="351" y2="349"/>
            <line clip-path="url(#clipPath2)" fill="none" x1="326" x2="326" y1="17" y2="21"/>
            <line clip-path="url(#clipPath2)" fill="none" x1="326" x2="326" y1="353" y2="349"/>
            <text xml:space="preserve" x="310" y="13" clip-path="url(#clipPath2)" stroke="none">10.0030</text>
            <text xml:space="preserve" x="310" y="364" clip-path="url(#clipPath2)" stroke="none">10.0030</text>
            <line clip-path="url(#clipPath2)" fill="none" x1="336" x2="336" y1="19" y2="21"/>
            <line clip-path="url(#clipPath2)" fill="none" x1="336" x2="336" y1="351" y2="349"/>
            <line clip-path="url(#clipPath2)" fill="none" x1="346" x2="346" y1="19" y2="21"/>
            <line clip-path="url(#clipPath2)" fill="none" x1="346" x2="346" y1="351" y2="349"/>
            <line clip-path="url(#clipPath2)" fill="none" x1="356" x2="356" y1="19" y2="21"/>
            <line clip-path="url(#clipPath2)" fill="none" x1="356" x2="356" y1="351" y2="349"/>
            <line clip-path="url(#clipPath2)" fill="none" x1="366" x2="366" y1="19" y2="21"/>
            <line clip-path="url(#clipPath2)" fill="none" x1="366" x2="366" y1="351" y2="349"/>
            <line clip-path="url(#clipPath2)" fill="none" x1="376" x2="376" y1="17" y2="21"/>
            <line clip-path="url(#clipPath2)" fill="none" x1="376" x2="376" y1="353" y2="349"/>
            <text xml:space="preserve" x="360" y="13" clip-path="url(#clipPath2)" stroke="none">10.0035</text>
            <text xml:space="preserve" x="360" y="364" clip-path="url(#clipPath2)" stroke="none">10.0035</text>
            <line clip-path="url(#clipPath2)" fill="none" x1="386" x2="386" y1="19" y2="21"/>
            <line clip-path="url(#clipPath2)" fill="none" x1="386" x2="386" y1="351" y2="349"/>
            <line clip-path="url(#clipPath2)" fill="none" x1="396" x2="396" y1="19" y2="21"/>
            <line clip-path="url(#clipPath2)" fill="none" x1="396" x2="396" y1="351" y2="349"/>
            <line clip-path="url(#clipPath2)" fill="none" x1="406" x2="406" y1="19" y2="21"/>
            <line clip-path="url(#clipPath2)" fill="none" x1="406" x2="406" y1="351" y2="349"/>
            <line clip-path="url(#clipPath2)" fill="none" x1="416" x2="416" y1="19" y2="21"/>
            <line clip-path="url(#clipPath2)" fill="none" x1="416" x2="416" y1="351" y2="349"/>
            <line clip-path="url(#clipPath2)" fill="none" x1="426" x2="426" y1="17" y2="21"/>
            <line clip-path="url(#clipPath2)" fill="none" x1="426" x2="426" y1="353" y2="349"/>
            <text xml:space="preserve" x="410" y="13" clip-path="url(#clipPath2)" stroke="none">10.0040</text>
            <text xml:space="preserve" x="410" y="364" clip-path="url(#clipPath2)" stroke="none">10.0040</text>
            <line clip-path="url(#clipPath2)" fill="none" x1="436" x2="436" y1="19" y2="21"/>
            <line clip-path="url(#clipPath2)" fill="none" x1="436" x2="436" y1="351" y2="349"/>
            <line clip-path="url(#clipPath2)" fill="none" x1="446" x2="446" y1="19" y2="21"/>
            <line clip-path="url(#clipPath2)" fill="none" x1="446" x2="446" y1="351" y2="349"/>
            <line clip-path="url(#clipPath2)" fill="none" x1="456" x2="456" y1="19" y2="21"/>
            <line clip-path="url(#clipPath2)" fill="none" x1="456" x2="456" y1="351" y2="349"/>
            <line clip-path="url(#clipPath2)" fill="none" x1="466" x2="466" y1="19" y2="21"/>
            <line clip-path="url(#clipPath2)" fill="none" x1="466" x2="466" y1="351" y2="349"/>
            <line clip-path="url(#clipPath2)" fill="none" x1="476" x2="476" y1="17" y2="21"/>
            <line clip-path="url(#clipPath2)" fill="none" x1="476" x2="476" y1="353" y2="349"/>
            <text xml:space="preserve" x="460" y="13" clip-path="url(#clipPath2)" stroke="none">10.0045</text>
            <text xml:space="preserve" x="460" y="364" clip-path="url(#clipPath2)" stroke="none">10.0045</text>
            <line clip-path="url(#clipPath2)" fill="none" x1="486" x2="486" y1="19" y2="21"/>
            <line clip-path="url(#clipPath2)" fill="none" x1="486" x2="486" y1="351" y2="349"/>
            <line clip-path="url(#clipPath2)" fill="none" x1="496" x2="496" y1="19" y2="21"/>
            <line clip-path="url(#clipPath2)" fill="none" x1="496" x2="496" y1="351" y2="349"/>
            <line clip-path="url(#clipPath2)" fill="none" x1="506" x2="506" y1="19" y2="21"/>
            <line clip-path="url(#clipPath2)" fill="none" x1="506" x2="506" y1="351" y2="349"/>
            <line clip-path="url(#clipPath2)" fill="none" x1="516" x2="516" y1="19" y2="21"/>
            <line clip-path="url(#clipPath2)" fill="none" x1="516" x2="516" y1="351" y2="349"/>
            <line clip-path="url(#clipPath2)" fill="none" x1="526" x2="526" y1="17" y2="21"/>
            <line clip-path="url(#clipPath2)" fill="none" x1="526" x2="526" y1="353" y2="349"/>
            <text xml:space="preserve" x="510" y="13" clip-path="url(#clipPath2)" stroke="none">10.0050</text>
            <text xml:space="preserve" x="510" y="364" clip-path="url(#clipPath2)" stroke="none">10.0050</text>
            <line clip-path="url(#clipPath2)" fill="none" x1="536" x2="536" y1="19" y2="21"/>
            <line clip-path="url(#clipPath2)" fill="none" x1="536" x2="536" y1="351" y2="349"/>
            <line clip-path="url(#clipPath2)" fill="none" x1="546" x2="546" y1="19" y2="21"/>
            <line clip-path="url(#clipPath2)" fill="none" x1="546" x2="546" y1="351" y2="349"/>
            <line clip-path="url(#clipPath2)" fill="none" x1="556" x2="556" y1="19" y2="21"/>
            <line clip-path="url(#clipPath2)" fill="none" x1="556" x2="556" y1="351" y2="349"/>
            <line clip-path="url(#clipPath2)" fill="none" x1="566" x2="566" y1="19" y2="21"/>
            <line clip-path="url(#clipPath2)" fill="none" x1="566" x2="566" y1="351" y2="349"/>
            <line clip-path="url(#clipPath2)" fill="none" x1="576" x2="576" y1="17" y2="21"/>
            <line clip-path="url(#clipPath2)" fill="none" x1="576" x2="576" y1="353" y2="349"/>
            <text xml:space="preserve" x="560" y="13" clip-path="url(#clipPath2)" stroke="none">10.0055</text>
            <text xml:space="preserve" x="560" y="364" clip-path="url(#clipPath2)" stroke="none">10.0055</text>
            <line clip-path="url(#clipPath2)" fill="none" x1="586" x2="586" y1="19" y2="21"/>
            <line clip-path="url(#clipPath2)" fill="none" x1="586" x2="586" y1="351" y2="349"/>
            <line clip-path="url(#clipPath2)" fill="none" x1="596" x2="596" y1="19" y2="21"/>
            <line clip-path="url(#clipPath2)" fill="none" x1="596" x2="596" y1="351" y2="349"/>
            <line clip-path="url(#clipPath2)" fill="none" x1="606" x2="606" y1="19" y2="21"/>
            <line clip-path="url(#clipPath2)" fill="none" x1="606" x2="606" y1="351" y2="349"/>
            <line clip-path="url(#clipPath2)" fill="none" x1="616" x2="616" y1="19" y2="21"/>
            <line clip-path="url(#clipPath2)" fill="none" x1="616" x2="616" y1="351" y2="349"/>
            <line clip-path="url(#clipPath2)" fill="none" x1="626" x2="626" y1="17" y2="21"/>
            <line clip-path="url(#clipPath2)" fill="none" x1="626" x2="626" y1="353" y2="349"/>
            <text xml:space="preserve" x="610" y="13" clip-path="url(#clipPath2)" stroke="none">10.0060</text>
            <text xml:space="preserve" x="610" y="364" clip-path="url(#clipPath2)" stroke="none">10.0060</text>
            <line clip-path="url(#clipPath2)" fill="none" x1="636" x2="636" y1="19" y2="21"/>
            <line clip-path="url(#clipPath2)" fill="none" x1="636" x2="636" y1="351" y2="349"/>
            <line clip-path="url(#clipPath2)" fill="none" x1="646" x2="646" y1="19" y2="21"/>
            <line clip-path="url(#clipPath2)" fill="none" x1="646" x2="646" y1="351" y2="349"/>
            <line clip-path="url(#clipPath2)" fill="none" x1="656" x2="656" y1="19" y2="21"/>
            <line clip-path="url(#clipPath2)" fill="none" x1="656" x2="656" y1="351" y2="349"/>
            <line clip-path="url(#clipPath2)" fill="none" x1="666" x2="666" y1="19" y2="21"/>
            <line clip-path="url(#clipPath2)" fill="none" x1="666" x2="666" y1="351" y2="349"/>
            <line clip-path="url(#clipPath2)" fill="none" x1="676" x2="676" y1="17" y2="21"/>
            <line clip-path="url(#clipPath2)" fill="none" x1="676" x2="676" y1="353" y2="349"/>
            <text xml:space="preserve" x="660" y="13" clip-path="url(#clipPath2)" stroke="none">10.0065</text>
            <text xml:space="preserve" x="660" y="364" clip-path="url(#clipPath2)" stroke="none">10.0065</text>
            <line clip-path="url(#clipPath2)" fill="none" x1="686" x2="686" y1="19" y2="21"/>
            <line clip-path="url(#clipPath2)" fill="none" x1="686" x2="686" y1="351" y2="349"/>
            <line clip-path="url(#clipPath2)" fill="none" x1="696" x2="696" y1="19" y2="21"/>
            <line clip-path="url(#clipPath2)" fill="none" x1="696" x2="696" y1="351" y2="349"/>
            <line clip-path="url(#clipPath2)" fill="none" x1="706" x2="706" y1="19" y2="21"/>
            <line clip-path="url(#clipPath2)" fill="none" x1="706" x2="706" y1="351" y2="349"/>
            <line clip-path="url(#clipPath2)" fill="none" x1="716" x2="716" y1="19" y2="21"/>
            <line clip-path="url(#clipPath2)" fill="none" x1="716" x2="716" y1="351" y2="349"/>
            <line clip-path="url(#clipPath2)" fill="none" x1="726" x2="726" y1="17" y2="21"/>
            <line clip-path="url(#clipPath2)" fill="none" x1="726" x2="726" y1="353" y2="349"/>
            <text xml:space="preserve" x="710" y="13" clip-path="url(#clipPath2)" stroke="none">10.0070</text>
            <text xml:space="preserve" x="710" y="364" clip-path="url(#clipPath2)" stroke="none">10.0070</text>
            <line clip-path="url(#clipPath2)" fill="none" x1="736" x2="736" y1="19" y2="21"/>
            <line clip-path="url(#clipPath2)" fill="none" x1="736" x2="736" y1="351" y2="349"/>
            <line clip-path="url(#clipPath2)" fill="none" x1="746" x2="746" y1="19" y2="21"/>
            <line clip-path="url(#clipPath2)" fill="none" x1="746" x2="746" y1="351" y2="349"/>
            <line clip-path="url(#clipPath2)" fill="none" x1="756" x2="756" y1="19" y2="21"/>
            <line clip-path="url(#clipPath2)" fill="none" x1="756" x2="756" y1="351" y2="349"/>
            <line clip-path="url(#clipPath2)" fill="none" x1="766" x2="766" y1="19" y2="21"/>
            <line clip-path="url(#clipPath2)" fill="none" x1="766" x2="766" y1="351" y2="349"/>
            <line clip-path="url(#clipPath2)" fill="none" x1="776" x2="776" y1="17" y2="21"/>
            <line clip-path="url(#clipPath2)" fill="none" x1="776" x2="776" y1="353" y2="349"/>
            <text xml:space="preserve" x="760" y="13" clip-path="url(#clipPath2)" stroke="none">10.0075</text>
            <text xml:space="preserve" x="760" y="364" clip-path="url(#clipPath2)" stroke="none">10.0075</text>
            <line clip-path="url(#clipPath2)" fill="none" x1="786" x2="786" y1="19" y2="21"/>
            <line clip-path="url(#clipPath2)" fill="none" x1="786" x2="786" y1="351" y2="349"/>
            <line clip-path="url(#clipPath2)" fill="none" x1="796" x2="796" y1="19" y2="21"/>
            <line clip-path="url(#clipPath2)" fill="none" x1="796" x2="796" y1="351" y2="349"/>
            <line clip-path="url(#clipPath2)" fill="none" x1="806" x2="806" y1="19" y2="21"/>
            <line clip-path="url(#clipPath2)" fill="none" x1="806" x2="806" y1="351" y2="349"/>
            <line clip-path="url(#clipPath2)" fill="none" x1="816" x2="816" y1="19" y2="21"/>
            <line clip-path="url(#clipPath2)" fill="none" x1="816" x2="816" y1="351" y2="349"/>
            <line clip-path="url(#clipPath2)" fill="none" x1="826" x2="826" y1="17" y2="21"/>
            <line clip-path="url(#clipPath2)" fill="none" x1="826" x2="826" y1="353" y2="349"/>
            <text xml:space="preserve" x="810" y="13" clip-path="url(#clipPath2)" stroke="none">10.0080</text>
            <text xml:space="preserve" x="810" y="364" clip-path="url(#clipPath2)" stroke="none">10.0080</text>
            <line clip-path="url(#clipPath2)" fill="none" x1="836" x2="836" y1="19" y2="21"/>
            <line clip-path="url(#clipPath2)" fill="none" x1="836" x2="836" y1="351" y2="349"/>
            <line clip-path="url(#clipPath2)" fill="none" x1="846" x2="846" y1="19" y2="21"/>
            <line clip-path="url(#clipPath2)" fill="none" x1="846" x2="846" y1="351" y2="349"/>
            <line clip-path="url(#clipPath2)" fill="none" x1="856" x2="856" y1="19" y2="21"/>
            <line clip-path="url(#clipPath2)" fill="none" x1="856" x2="856" y1="351" y2="349"/>
            <line clip-path="url(#clipPath2)" fill="none" x1="866" x2="866" y1="19" y2="21"/>
            <line clip-path="url(#clipPath2)" fill="none" x1="866" x2="866" y1="351" y2="349"/>
            <line clip-path="url(#clipPath2)" fill="none" x1="876" x2="876" y1="17" y2="21"/>
            <line clip-path="url(#clipPath2)" fill="none" x1="876" x2="876" y1="353" y2="349"/>
            <text xml:space="preserve" x="860" y="13" clip-path="url(#clipPath2)" stroke="none">10.0085</text>
            <text xml:space="preserve" x="860" y="364" clip-path="url(#clipPath2)" stroke="none">10.0085</text>
            <line clip-path="url(#clipPath2)" fill="none" x1="886" x2="886" y1="19" y2="21"/>
            <line clip-path="url(#clipPath2)" fill="none" x1="886" x2="886" y1="351" y2="349"/>
            <line clip-path="url(#clipPath2)" fill="none" x1="896" x2="896" y1="19" y2="21"/>
            <line clip-path="url(#clipPath2)" fill="none" x1="896" x2="896" y1="351" y2="349"/>
            <line clip-path="url(#clipPath2)" fill="none" x1="906" x2="906" y1="19" y2="21"/>
            <line clip-path="url(#clipPath2)" fill="none" x1="906" x2="906" y1="351" y2="349"/>
            <line clip-path="url(#clipPath2)" fill="none" x1="916" x2="916" y1="19" y2="21"/>
            <line clip-path="url(#clipPath2)" fill="none" x1="916" x2="916" y1="351" y2="349"/>
            <line clip-path="url(#clipPath2)" fill="none" x1="926" x2="926" y1="17" y2="21"/>
            <line clip-path="url(#clipPath2)" fill="none" x1="926" x2="926" y1="353" y2="349"/>
            <text xml:space="preserve" x="910" y="13" clip-path="url(#clipPath2)" stroke="none">10.0090</text>
            <text xml:space="preserve" x="910" y="364" clip-path="url(#clipPath2)" stroke="none">10.0090</text>
            <line clip-path="url(#clipPath2)" fill="none" x1="936" x2="936" y1="19" y2="21"/>
            <line clip-path="url(#clipPath2)" fill="none" x1="936" x2="936" y1="351" y2="349"/>
            <line clip-path="url(#clipPath2)" fill="none" x1="946" x2="946" y1="19" y2="21"/>
            <line clip-path="url(#clipPath2)" fill="none" x1="946" x2="946" y1="351" y2="349"/>
            <line clip-path="url(#clipPath2)" fill="none" x1="956" x2="956" y1="19" y2="21"/>
            <line clip-path="url(#clipPath2)" fill="none" x1="956" x2="956" y1="351" y2="349"/>
            <line clip-path="url(#clipPath2)" fill="none" x1="966" x2="966" y1="19" y2="21"/>
            <line clip-path="url(#clipPath2)" fill="none" x1="966" x2="966" y1="351" y2="349"/>
            <line clip-path="url(#clipPath2)" fill="none" x1="976" x2="976" y1="17" y2="21"/>
            <line clip-path="url(#clipPath2)" fill="none" x1="976" x2="976" y1="353" y2="349"/>
            <text xml:space="preserve" x="960" y="13" clip-path="url(#clipPath2)" stroke="none">10.0095</text>
            <text xml:space="preserve" x="960" y="364" clip-path="url(#clipPath2)" stroke="none">10.0095</text>
            <line clip-path="url(#clipPath2)" fill="none" x1="986" x2="986" y1="19" y2="21"/>
            <line clip-path="url(#clipPath2)" fill="none" x1="986" x2="986" y1="351" y2="349"/>
            <line clip-path="url(#clipPath2)" fill="none" x1="996" x2="996" y1="19" y2="21"/>
            <line clip-path="url(#clipPath2)" fill="none" x1="996" x2="996" y1="351" y2="349"/>
            <line clip-path="url(#clipPath2)" fill="none" x1="1006" x2="1006" y1="19" y2="21"/>
            <line clip-path="url(#clipPath2)" fill="none" x1="1006" x2="1006" y1="351" y2="349"/>
            <line clip-path="url(#clipPath2)" fill="none" x1="1016" x2="1016" y1="19" y2="21"/>
            <line clip-path="url(#clipPath2)" fill="none" x1="1016" x2="1016" y1="351" y2="349"/>
            <line clip-path="url(#clipPath2)" fill="none" x1="26" x2="1027" y1="347" y2="347"/>
            <line clip-path="url(#clipPath2)" fill="none" x1="24" x2="24" y1="23" y2="347"/>
            <line clip-path="url(#clipPath2)" fill="none" x1="1029" x2="1029" y1="23" y2="347"/>
            <line clip-path="url(#clipPath2)" fill="none" x1="20" x2="24" y1="347" y2="347"/>
            <line clip-path="url(#clipPath2)" fill="none" x1="1033" x2="1029" y1="347" y2="347"/>
            <text xml:space="preserve" x="14" y="351" clip-path="url(#clipPath2)" stroke="none">0</text>
            <text xml:space="preserve" x="1036" y="351" clip-path="url(#clipPath2)" stroke="none">0</text>
            <line clip-path="url(#clipPath2)" fill="none" x1="22" x2="24" y1="322" y2="322"/>
            <line clip-path="url(#clipPath2)" fill="none" x1="1031" x2="1029" y1="322" y2="322"/>
            <line clip-path="url(#clipPath2)" fill="none" x1="22" x2="24" y1="298" y2="298"/>
            <line clip-path="url(#clipPath2)" fill="none" x1="1031" x2="1029" y1="298" y2="298"/>
            <line clip-path="url(#clipPath2)" fill="none" x1="22" x2="24" y1="274" y2="274"/>
            <line clip-path="url(#clipPath2)" fill="none" x1="1031" x2="1029" y1="274" y2="274"/>
            <line clip-path="url(#clipPath2)" fill="none" x1="22" x2="24" y1="249" y2="249"/>
            <line clip-path="url(#clipPath2)" fill="none" x1="1031" x2="1029" y1="249" y2="249"/>
            <line clip-path="url(#clipPath2)" fill="none" x1="20" x2="24" y1="225" y2="225"/>
            <line clip-path="url(#clipPath2)" fill="none" x1="1033" x2="1029" y1="225" y2="225"/>
            <text xml:space="preserve" x="14" y="229" clip-path="url(#clipPath2)" stroke="none">5</text>
            <text xml:space="preserve" x="1036" y="229" clip-path="url(#clipPath2)" stroke="none">5</text>
            <line clip-path="url(#clipPath2)" fill="none" x1="22" x2="24" y1="201" y2="201"/>
            <line clip-path="url(#clipPath2)" fill="none" x1="1031" x2="1029" y1="201" y2="201"/>
            <line clip-path="url(#clipPath2)" fill="none" x1="22" x2="24" y1="176" y2="176"/>
            <line clip-path="url(#clipPath2)" fill="none" x1="1031" x2="1029" y1="176" y2="176"/>
            <line clip-path="url(#clipPath2)" fill="none" x1="22" x2="24" y1="152" y2="152"/>
            <line clip-path="url(#clipPath2)" fill="none" x1="1031" x2="1029" y1="152" y2="152"/>
            <line clip-path="url(#clipPath2)" fill="none" x1="22" x2="24" y1="128" y2="128"/>
            <line clip-path="url(#clipPath2)" fill="none" x1="1031" x2="1029" y1="128" y2="128"/>
            <line clip-path="url(#clipPath2)" fill="none" x1="20" x2="24" y1="104" y2="104"/>
            <line clip-path="url(#clipPath2)" fill="none" x1="1033" x2="1029" y1="104" y2="104"/>
            <text xml:space="preserve" x="9" y="108" clip-path="url(#clipPath2)" stroke="none">10</text>
            <text xml:space="preserve" x="1036" y="108" clip-path="url(#clipPath2)" stroke="none">10</text>
            <line clip-path="url(#clipPath2)" fill="none" x1="22" x2="24" y1="79" y2="79"/>
            <line clip-path="url(#clipPath2)" fill="none" x1="1031" x2="1029" y1="79" y2="79"/>
            <line clip-path="url(#clipPath2)" fill="none" x1="22" x2="24" y1="55" y2="55"/>
            <line clip-path="url(#clipPath2)" fill="none" x1="1031" x2="1029" y1="55" y2="55"/>
            <line clip-path="url(#clipPath2)" fill="none" x1="22" x2="24" y1="31" y2="31"/>
            <line clip-path="url(#clipPath2)" fill="none" x1="1031" x2="1029" y1="31" y2="31"/>
        </g>
    </g>
</svg>
