<?xml version="1.0" encoding="UTF-8"?><svg xmlns="http://www.w3.org/2000/svg" xmlns:xlink="http://www.w3.org/1999/xlink" stroke-dasharray="none" shape-rendering="auto" font-family="'Dialog'" width="1053" text-rendering="auto" fill-opacity="1" contentScriptType="text/ecmascript" color-interpolation="auto" color-rendering="auto" preserveAspectRatio="xMidYMid meet" font-size="12" fill="black" stroke="black" image-rendering="auto" stroke-miterlimit="10" zoomAndPan="magnify" version="1.0" stroke-linecap="square" stroke-linejoin="miter" contentStyleType="text/css" font-style="normal" height="370" stroke-width="1" stroke-dashoffset="0" font-weight="normal" stroke-opacity="1">
    <!--Generated by the Batik Graphics2D SVG Generator-->
    <defs id="genericDefs"/>
    <g>
        <defs id="defs1">
            <clipPath clipPathUnits="userSpaceOnUse" id="clipPath1">
                <path d="M25 22 L1028 22 L1028 348 L25 348 L25 22 Z"/>
            </clipPath>
            <clipPath clipPathUnits="userSpaceOnUse" id="clipPath2">
                <path d="M-1 -1 L1054 -1 L1054 371 L-1 371 L-1 -1 Z"/>
            </clipPath>
        </defs>
        <g font-size="13" fill="white" text-rendering="geometricPrecision" stroke-linejoin="round" stroke="white" stroke-width="0" stroke-miterlimit="0">
            <rect x="26" y="23" clip-path="url(#clipPath1)" width="1001" height="324" stroke="none"/>
        </g>
        <g stroke-linecap="butt" font-size="13" fill="rgb(204,204,204)" text-rendering="geometricPrecision" stroke-dasharray="3,3" stroke="rgb(204,204,204)">
            <line clip-path="url(#clipPath1)" fill="none" x1="26" x2="26" y1="23" y2="347"/>
            <line clip-path="url(#clipPath1)" fill="none" x1="92" x2="92" y1="23" y2="347"/>
            <line clip-path="url(#clipPath1)" fill="none" x1="159" x2="159" y1="23" y2="347"/>
            <line clip-path="url(#clipPath1)" fill="none" x1="226" x2="226" y1="23" y2="347"/>
            <line clip-path="url(#clipPath1)" fill="none" x1="292" x2="292" y1="23" y2="347"/>
            <line clip-path="url(#clipPath1)" fill="none" x1="359" x2="359" y1="23" y2="347"/>
            <line clip-path="url(#clipPath1)" fill="none" x1="426" x2="426" y1="23" y2="347"/>
            <line clip-path="url(#clipPath1)" fill="none" x1="493" x2="493" y1="23" y2="347"/>
            <line clip-path="url(#clipPath1)" fill="none" x1="559" x2="559" y1="23" y2="347"/>
            <line clip-path="url(#clipPath1)" fill="none" x1="626" x2="626" y1="23" y2="347"/>
            <line clip-path="url(#clipPath1)" fill="none" x1="693" x2="693" y1="23" y2="347"/>
            <line clip-path="url(#clipPath1)" fill="none" x1="760" x2="760" y1="23" y2="347"/>
            <line clip-path="url(#clipPath1)" fill="none" x1="826" x2="826" y1="23" y2="347"/>
            <line clip-path="url(#clipPath1)" fill="none" x1="893" x2="893" y1="23" y2="347"/>
            <line clip-path="url(#clipPath1)" fill="none" x1="960" x2="960" y1="23" y2="347"/>
            <line clip-path="url(#clipPath1)" fill="none" x1="1027" x2="1027" y1="23" y2="347"/>
            <line clip-path="url(#clipPath1)" fill="none" x1="26" x2="1027" y1="347" y2="347"/>
            <line clip-path="url(#clipPath1)" fill="none" x1="26" x2="1027" y1="293" y2="293"/>
            <line clip-path="url(#clipPath1)" fill="none" x1="26" x2="1027" y1="239" y2="239"/>
            <line clip-path="url(#clipPath1)" fill="none" x1="26" x2="1027" y1="185" y2="185"/>
            <line clip-path="url(#clipPath1)" fill="none" x1="26" x2="1027" y1="131" y2="131"/>
            <line clip-path="url(#clipPath1)" fill="none" x1="26" x2="1027" y1="77" y2="77"/>
            <line clip-path="url(#clipPath1)" fill="none" x1="26" x2="1027" y1="23" y2="23"/>
            <rect x="39" y="129" clip-path="url(#clipPath1)" fill="rgb(0,0,139)" width="5" height="5" stroke="none"/>
            <line clip-path="url(#clipPath1)" fill="none" x1="41" x2="57" y1="131" y2="131" stroke-dasharray="none" stroke="rgb(0,0,139)"/>
            <rect x="55" y="129" clip-path="url(#clipPath1)" fill="rgb(0,0,139)" width="5" stroke-dasharray="none" height="5" stroke="none"/>
            <line clip-path="url(#clipPath1)" fill="none" x1="57" x2="73" y1="131" y2="131" stroke-dasharray="none" stroke="rgb(0,0,139)"/>
            <rect x="71" y="129" clip-path="url(#clipPath1)" fill="rgb(0,0,139)" width="5" stroke-dasharray="none" height="5" stroke="none"/>
            <line clip-path="url(#clipPath1)" fill="none" x1="73" x2="88" y1="131" y2="158" stroke-dasharray="none" stroke="rgb(0,0,139)"/>
            <rect x="86" y="156" clip-path="url(#clipPath1)" fill="rgb(0,0,139)" width="5" stroke-dasharray="none" height="5" stroke="none"/>
            <line clip-path="url(#clipPath1)" fill="none" x1="88" x2="104" y1="158" y2="131" stroke-dasharray="none" stroke="rgb(0,0,139)"/>
            <rect x="102" y="129" clip-path="url(#clipPath1)" fill="rgb(0,0,139)" width="5" stroke-dasharray="none" height="5" stroke="none"/>
            <line clip-path="url(#clipPath1)" fill="none" x1="104" x2="120" y1="131" y2="131" stroke-dasharray="none" stroke="rgb(0,0,139)"/>
            <rect x="118" y="129" clip-path="url(#clipPath1)" fill="rgb(0,0,139)" width="5" stroke-dasharray="none" height="5" stroke="none"/>
            <line clip-path="url(#clipPath1)" fill="none" x1="120" x2="135" y1="131" y2="131" stroke-dasharray="none" stroke="rgb(0,0,139)"/>
            <rect x="133" y="129" clip-path="url(#clipPath1)" fill="rgb(0,0,139)" width="5" stroke-dasharray="none" height="5" stroke="none"/>
            <line clip-path="url(#clipPath1)" fill="none" x1="135" x2="151" y1="131" y2="131" stroke-dasharray="none" stroke="rgb(0,0,139)"/>
            <rect x="149" y="129" clip-path="url(#clipPath1)" fill="rgb(0,0,139)" width="5" stroke-dasharray="none" height="5" stroke="none"/>
            <line clip-path="url(#clipPath1)" fill="none" x1="151" x2="167" y1="131" y2="158" stroke-dasharray="none" stroke="rgb(0,0,139)"/>
            <rect x="165" y="156" clip-path="url(#clipPath1)" fill="rgb(0,0,139)" width="5" stroke-dasharray="none" height="5" stroke="none"/>
            <line clip-path="url(#clipPath1)" fill="none" x1="167" x2="182" y1="158" y2="158" stroke-dasharray="none" stroke="rgb(0,0,139)"/>
            <rect x="180" y="156" clip-path="url(#clipPath1)" fill="rgb(0,0,139)" width="5" stroke-dasharray="none" height="5" stroke="none"/>
            <line clip-path="url(#clipPath1)" fill="none" x1="182" x2="198" y1="158" y2="158" stroke-dasharray="none" stroke="rgb(0,0,139)"/>
            <rect x="196" y="156" clip-path="url(#clipPath1)" fill="rgb(0,0,139)" width="5" stroke-dasharray="none" height="5" stroke="none"/>
            <line clip-path="url(#clipPath1)" fill="none" x1="198" x2="214" y1="158" y2="104" stroke-dasharray="none" stroke="rgb(0,0,139)"/>
            <rect x="212" y="102" clip-path="url(#clipPath1)" fill="rgb(0,0,139)" width="5" stroke-dasharray="none" height="5" stroke="none"/>
            <line clip-path="url(#clipPath1)" fill="none" x1="214" x2="229" y1="104" y2="131" stroke-dasharray="none" stroke="rgb(0,0,139)"/>
            <rect x="227" y="129" clip-path="url(#clipPath1)" fill="rgb(0,0,139)" width="5" stroke-dasharray="none" height="5" stroke="none"/>
            <line clip-path="url(#clipPath1)" fill="none" x1="229" x2="245" y1="131" y2="104" stroke-dasharray="none" stroke="rgb(0,0,139)"/>
            <rect x="243" y="102" clip-path="url(#clipPath1)" fill="rgb(0,0,139)" width="5" stroke-dasharray="none" height="5" stroke="none"/>
            <line clip-path="url(#clipPath1)" fill="none" x1="245" x2="261" y1="104" y2="131" stroke-dasharray="none" stroke="rgb(0,0,139)"/>
            <rect x="259" y="129" clip-path="url(#clipPath1)" fill="rgb(0,0,139)" width="5" stroke-dasharray="none" height="5" stroke="none"/>
            <line clip-path="url(#clipPath1)" fill="none" x1="261" x2="276" y1="131" y2="131" stroke-dasharray="none" stroke="rgb(0,0,139)"/>
            <rect x="274" y="129" clip-path="url(#clipPath1)" fill="rgb(0,0,139)" width="5" stroke-dasharray="none" height="5" stroke="none"/>
            <line clip-path="url(#clipPath1)" fill="none" x1="276" x2="292" y1="131" y2="104" stroke-dasharray="none" stroke="rgb(0,0,139)"/>
            <rect x="290" y="102" clip-path="url(#clipPath1)" fill="rgb(0,0,139)" width="5" stroke-dasharray="none" height="5" stroke="none"/>
            <line clip-path="url(#clipPath1)" fill="none" x1="292" x2="308" y1="104" y2="104" stroke-dasharray="none" stroke="rgb(0,0,139)"/>
            <rect x="306" y="102" clip-path="url(#clipPath1)" fill="rgb(0,0,139)" width="5" stroke-dasharray="none" height="5" stroke="none"/>
            <line clip-path="url(#clipPath1)" fill="none" x1="308" x2="323" y1="104" y2="104" stroke-dasharray="none" stroke="rgb(0,0,139)"/>
            <rect x="321" y="102" clip-path="url(#clipPath1)" fill="rgb(0,0,139)" width="5" stroke-dasharray="none" height="5" stroke="none"/>
            <line clip-path="url(#clipPath1)" fill="none" x1="323" x2="339" y1="104" y2="131" stroke-dasharray="none" stroke="rgb(0,0,139)"/>
            <rect x="337" y="129" clip-path="url(#clipPath1)" fill="rgb(0,0,139)" width="5" stroke-dasharray="none" height="5" stroke="none"/>
            <line clip-path="url(#clipPath1)" fill="none" x1="339" x2="355" y1="131" y2="158" stroke-dasharray="none" stroke="rgb(0,0,139)"/>
            <rect x="353" y="156" clip-path="url(#clipPath1)" fill="rgb(0,0,139)" width="5" stroke-dasharray="none" height="5" stroke="none"/>
            <line clip-path="url(#clipPath1)" fill="none" x1="355" x2="370" y1="158" y2="104" stroke-dasharray="none" stroke="rgb(0,0,139)"/>
            <rect x="368" y="102" clip-path="url(#clipPath1)" fill="rgb(0,0,139)" width="5" stroke-dasharray="none" height="5" stroke="none"/>
            <line clip-path="url(#clipPath1)" fill="none" x1="370" x2="386" y1="104" y2="131" stroke-dasharray="none" stroke="rgb(0,0,139)"/>
            <rect x="384" y="129" clip-path="url(#clipPath1)" fill="rgb(0,0,139)" width="5" stroke-dasharray="none" height="5" stroke="none"/>
            <line clip-path="url(#clipPath1)" fill="none" x1="386" x2="402" y1="131" y2="131" stroke-dasharray="none" stroke="rgb(0,0,139)"/>
            <rect x="400" y="129" clip-path="url(#clipPath1)" fill="rgb(0,0,139)" width="5" stroke-dasharray="none" height="5" stroke="none"/>
            <line clip-path="url(#clipPath1)" fill="none" x1="402" x2="417" y1="131" y2="104" stroke-dasharray="none" stroke="rgb(0,0,139)"/>
            <rect x="415" y="102" clip-path="url(#clipPath1)" fill="rgb(0,0,139)" width="5" stroke-dasharray="none" height="5" stroke="none"/>
            <line clip-path="url(#clipPath1)" fill="none" x1="417" x2="433" y1="104" y2="158" stroke-dasharray="none" stroke="rgb(0,0,139)"/>
            <rect x="431" y="156" clip-path="url(#clipPath1)" fill="rgb(0,0,139)" width="5" stroke-dasharray="none" height="5" stroke="none"/>
            <line clip-path="url(#clipPath1)" fill="none" x1="433" x2="449" y1="158" y2="131" stroke-dasharray="none" stroke="rgb(0,0,139)"/>
            <rect x="447" y="129" clip-path="url(#clipPath1)" fill="rgb(0,0,139)" width="5" stroke-dasharray="none" height="5" stroke="none"/>
            <line clip-path="url(#clipPath1)" fill="none" x1="449" x2="464" y1="131" y2="131" stroke-dasharray="none" stroke="rgb(0,0,139)"/>
            <rect x="462" y="129" clip-path="url(#clipPath1)" fill="rgb(0,0,139)" width="5" stroke-dasharray="none" height="5" stroke="none"/>
            <line clip-path="url(#clipPath1)" fill="none" x1="464" x2="480" y1="131" y2="212" stroke-dasharray="none" stroke="rgb(0,0,139)"/>
            <rect x="478" y="210" clip-path="url(#clipPath1)" fill="rgb(0,0,139)" width="5" stroke-dasharray="none" height="5" stroke="none"/>
            <line clip-path="url(#clipPath1)" fill="none" x1="480" x2="496" y1="212" y2="158" stroke-dasharray="none" stroke="rgb(0,0,139)"/>
            <rect x="494" y="156" clip-path="url(#clipPath1)" fill="rgb(0,0,139)" width="5" stroke-dasharray="none" height="5" stroke="none"/>
            <line clip-path="url(#clipPath1)" fill="none" x1="496" x2="511" y1="158" y2="104" stroke-dasharray="none" stroke="rgb(0,0,139)"/>
            <rect x="509" y="102" clip-path="url(#clipPath1)" fill="rgb(0,0,139)" width="5" stroke-dasharray="none" height="5" stroke="none"/>
            <line clip-path="url(#clipPath1)" fill="none" x1="511" x2="527" y1="104" y2="104" stroke-dasharray="none" stroke="rgb(0,0,139)"/>
            <rect x="525" y="102" clip-path="url(#clipPath1)" fill="rgb(0,0,139)" width="5" stroke-dasharray="none" height="5" stroke="none"/>
            <line clip-path="url(#clipPath1)" fill="none" x1="527" x2="543" y1="104" y2="104" stroke-dasharray="none" stroke="rgb(0,0,139)"/>
            <rect x="541" y="102" clip-path="url(#clipPath1)" fill="rgb(0,0,139)" width="5" stroke-dasharray="none" height="5" stroke="none"/>
            <line clip-path="url(#clipPath1)" fill="none" x1="543" x2="558" y1="104" y2="104" stroke-dasharray="none" stroke="rgb(0,0,139)"/>
            <rect x="556" y="102" clip-path="url(#clipPath1)" fill="rgb(0,0,139)" width="5" stroke-dasharray="none" height="5" stroke="none"/>
            <line clip-path="url(#clipPath1)" fill="none" x1="558" x2="574" y1="104" y2="131" stroke-dasharray="none" stroke="rgb(0,0,139)"/>
            <rect x="572" y="129" clip-path="url(#clipPath1)" fill="rgb(0,0,139)" width="5" stroke-dasharray="none" height="5" stroke="none"/>
            <line clip-path="url(#clipPath1)" fill="none" x1="574" x2="590" y1="131" y2="212" stroke-dasharray="none" stroke="rgb(0,0,139)"/>
            <rect x="588" y="210" clip-path="url(#clipPath1)" fill="rgb(0,0,139)" width="5" stroke-dasharray="none" height="5" stroke="none"/>
            <line clip-path="url(#clipPath1)" fill="none" x1="590" x2="605" y1="212" y2="131" stroke-dasharray="none" stroke="rgb(0,0,139)"/>
            <rect x="603" y="129" clip-path="url(#clipPath1)" fill="rgb(0,0,139)" width="5" stroke-dasharray="none" height="5" stroke="none"/>
            <line clip-path="url(#clipPath1)" fill="none" x1="605" x2="621" y1="131" y2="158" stroke-dasharray="none" stroke="rgb(0,0,139)"/>
            <rect x="619" y="156" clip-path="url(#clipPath1)" fill="rgb(0,0,139)" width="5" stroke-dasharray="none" height="5" stroke="none"/>
            <line clip-path="url(#clipPath1)" fill="none" x1="621" x2="637" y1="158" y2="104" stroke-dasharray="none" stroke="rgb(0,0,139)"/>
            <rect x="635" y="102" clip-path="url(#clipPath1)" fill="rgb(0,0,139)" width="5" stroke-dasharray="none" height="5" stroke="none"/>
            <line clip-path="url(#clipPath1)" fill="none" x1="637" x2="652" y1="104" y2="104" stroke-dasharray="none" stroke="rgb(0,0,139)"/>
            <rect x="650" y="102" clip-path="url(#clipPath1)" fill="rgb(0,0,139)" width="5" stroke-dasharray="none" height="5" stroke="none"/>
            <line clip-path="url(#clipPath1)" fill="none" x1="652" x2="668" y1="104" y2="131" stroke-dasharray="none" stroke="rgb(0,0,139)"/>
            <rect x="666" y="129" clip-path="url(#clipPath1)" fill="rgb(0,0,139)" width="5" stroke-dasharray="none" height="5" stroke="none"/>
            <line clip-path="url(#clipPath1)" fill="none" x1="668" x2="684" y1="131" y2="131" stroke-dasharray="none" stroke="rgb(0,0,139)"/>
            <rect x="682" y="129" clip-path="url(#clipPath1)" fill="rgb(0,0,139)" width="5" stroke-dasharray="none" height="5" stroke="none"/>
            <line clip-path="url(#clipPath1)" fill="none" x1="684" x2="699" y1="131" y2="104" stroke-dasharray="none" stroke="rgb(0,0,139)"/>
            <rect x="697" y="102" clip-path="url(#clipPath1)" fill="rgb(0,0,139)" width="5" stroke-dasharray="none" height="5" stroke="none"/>
            <line clip-path="url(#clipPath1)" fill="none" x1="699" x2="715" y1="104" y2="104" stroke-dasharray="none" stroke="rgb(0,0,139)"/>
            <rect x="713" y="102" clip-path="url(#clipPath1)" fill="rgb(0,0,139)" width="5" stroke-dasharray="none" height="5" stroke="none"/>
            <line clip-path="url(#clipPath1)" fill="none" x1="715" x2="731" y1="104" y2="131" stroke-dasharray="none" stroke="rgb(0,0,139)"/>
            <rect x="729" y="129" clip-path="url(#clipPath1)" fill="rgb(0,0,139)" width="5" stroke-dasharray="none" height="5" stroke="none"/>
            <rect x="26" y="23" clip-path="url(#clipPath2)" fill="none" width="1001" stroke-dasharray="none" height="324" stroke="black"/>
            <line clip-path="url(#clipPath2)" fill="none" x1="26" x2="1027" y1="21" y2="21" stroke-dasharray="none" stroke="black"/>
            <line clip-path="url(#clipPath2)" fill="none" x1="26" x2="1027" y1="349" y2="349" stroke-dasharray="none" stroke="black"/>
        </g>
        <g text-rendering="geometricPrecision" font-size="10" stroke-linecap="butt">
            <line clip-path="url(#clipPath2)" fill="none" x1="26" x2="26" y1="17" y2="21"/>
            <line clip-path="url(#clipPath2)" fill="none" x1="26" x2="26" y1="353" y2="349"/>
            <text xml:space="preserve" x="12" y="13" clip-path="url(#clipPath2)" stroke="none">10.000</text>
            <text xml:space="preserve" x="12" y="364" clip-path="url(#clipPath2)" stroke="none">10.000</text>
            <line clip-path="url(#clipPath2)" fill="none" x1="39" x2="39" y1="19" y2="21"/>
            <line clip-path="url(#clipPath2)" fill="none" x1="39" x2="39" y1="351" y2="349"/>
            <line clip-path="url(#clipPath2)" fill="none" x1="52" x2="52" y1="19" y2="21"/>
            <line clip-path="url(#clipPath2)" fill="none" x1="52" x2="52" y1="351" y2="349"/>
            <line clip-path="url(#clipPath2)" fill="none" x1="66" x2="66" y1="19" y2="21"/>
            <line clip-path="url(#clipPath2)" fill="none" x1="66" x2="66" y1="351" y2="349"/>
            <line clip-path="url(#clipPath2)" fill="none" x1="79" x2="79" y1="19" y2="21"/>
            <line clip-path="url(#clipPath2)" fill="none" x1="79" x2="79" y1="351" y2="349"/>
            <line clip-path="url(#clipPath2)" fill="none" x1="92" x2="92" y1="17" y2="21"/>
            <line clip-path="url(#clipPath2)" fill="none" x1="92" x2="92" y1="353" y2="349"/>
            <text xml:space="preserve" x="76" y="13" clip-path="url(#clipPath2)" stroke="none">10.0010</text>
            <text xml:space="preserve" x="76" y="364" clip-path="url(#clipPath2)" stroke="none">10.0010</text>
            <line clip-path="url(#clipPath2)" fill="none" x1="106" x2="106" y1="19" y2="21"/>
            <line clip-path="url(#clipPath2)" fill="none" x1="106" x2="106" y1="351" y2="349"/>
            <line clip-path="url(#clipPath2)" fill="none" x1="119" x2="119" y1="19" y2="21"/>
            <line clip-path="url(#clipPath2)" fill="none" x1="119" x2="119" y1="351" y2="349"/>
            <line clip-path="url(#clipPath2)" fill="none" x1="132" x2="132" y1="19" y2="21"/>
            <line clip-path="url(#clipPath2)" fill="none" x1="132" x2="132" y1="351" y2="349"/>
            <line clip-path="url(#clipPath2)" fill="none" x1="146" x2="146" y1="19" y2="21"/>
            <line clip-path="url(#clipPath2)" fill="none" x1="146" x2="146" y1="351" y2="349"/>
            <line clip-path="url(#clipPath2)" fill="none" x1="159" x2="159" y1="17" y2="21"/>
            <line clip-path="url(#clipPath2)" fill="none" x1="159" x2="159" y1="353" y2="349"/>
            <text xml:space="preserve" x="143" y="13" clip-path="url(#clipPath2)" stroke="none">10.0020</text>
            <text xml:space="preserve" x="143" y="364" clip-path="url(#clipPath2)" stroke="none">10.0020</text>
            <line clip-path="url(#clipPath2)" fill="none" x1="172" x2="172" y1="19" y2="21"/>
            <line clip-path="url(#clipPath2)" fill="none" x1="172" x2="172" y1="351" y2="349"/>
            <line clip-path="url(#clipPath2)" fill="none" x1="186" x2="186" y1="19" y2="21"/>
            <line clip-path="url(#clipPath2)" fill="none" x1="186" x2="186" y1="351" y2="349"/>
            <line clip-path="url(#clipPath2)" fill="none" x1="199" x2="199" y1="19" y2="21"/>
            <line clip-path="url(#clipPath2)" fill="none" x1="199" x2="199" y1="351" y2="349"/>
            <line clip-path="url(#clipPath2)" fill="none" x1="212" x2="212" y1="19" y2="21"/>
            <line clip-path="url(#clipPath2)" fill="none" x1="212" x2="212" y1="351" y2="349"/>
            <line clip-path="url(#clipPath2)" fill="none" x1="226" x2="226" y1="17" y2="21"/>
            <line clip-path="url(#clipPath2)" fill="none" x1="226" x2="226" y1="353" y2="349"/>
            <text xml:space="preserve" x="210" y="13" clip-path="url(#clipPath2)" stroke="none">10.0030</text>
            <text xml:space="preserve" x="210" y="364" clip-path="url(#clipPath2)" stroke="none">10.0030</text>
            <line clip-path="url(#clipPath2)" fill="none" x1="239" x2="239" y1="19" y2="21"/>
            <line clip-path="url(#clipPath2)" fill="none" x1="239" x2="239" y1="351" y2="349"/>
            <line clip-path="url(#clipPath2)" fill="none" x1="252" x2="252" y1="19" y2="21"/>
            <line clip-path="url(#clipPath2)" fill="none" x1="252" x2="252" y1="351" y2="349"/>
            <line clip-path="url(#clipPath2)" fill="none" x1="266" x2="266" y1="19" y2="21"/>
            <line clip-path="url(#clipPath2)" fill="none" x1="266" x2="266" y1="351" y2="349"/>
            <line clip-path="url(#clipPath2)" fill="none" x1="279" x2="279" y1="19" y2="21"/>
            <line clip-path="url(#clipPath2)" fill="none" x1="279" x2="279" y1="351" y2="349"/>
            <line clip-path="url(#clipPath2)" fill="none" x1="292" x2="292" y1="17" y2="21"/>
            <line clip-path="url(#clipPath2)" fill="none" x1="292" x2="292" y1="353" y2="349"/>
            <text xml:space="preserve" x="276" y="13" clip-path="url(#clipPath2)" stroke="none">10.0040</text>
            <text xml:space="preserve" x="276" y="364" clip-path="url(#clipPath2)" stroke="none">10.0040</text>
            <line clip-path="url(#clipPath2)" fill="none" x1="306" x2="306" y1="19" y2="21"/>
            <line clip-path="url(#clipPath2)" fill="none" x1="306" x2="306" y1="351" y2="349"/>
            <line clip-path="url(#clipPath2)" fill="none" x1="319" x2="319" y1="19" y2="21"/>
            <line clip-path="url(#clipPath2)" fill="none" x1="319" x2="319" y1="351" y2="349"/>
            <line clip-path="url(#clipPath2)" fill="none" x1="332" x2="332" y1="19" y2="21"/>
            <line clip-path="url(#clipPath2)" fill="none" x1="332" x2="332" y1="351" y2="349"/>
            <line clip-path="url(#clipPath2)" fill="none" x1="346" x2="346" y1="19" y2="21"/>
            <line clip-path="url(#clipPath2)" fill="none" x1="346" x2="346" y1="351" y2="349"/>
            <line clip-path="url(#clipPath2)" fill="none" x1="359" x2="359" y1="17" y2="21"/>
            <line clip-path="url(#clipPath2)" fill="none" x1="359" x2="359" y1="353" y2="349"/>
            <text xml:space="preserve" x="343" y="13" clip-path="url(#clipPath2)" stroke="none">10.0050</text>
            <text xml:space="preserve" x="343" y="364" clip-path="url(#clipPath2)" stroke="none">10.0050</text>
            <line clip-path="url(#clipPath2)" fill="none" x1="373" x2="373" y1="19" y2="21"/>
            <line clip-path="url(#clipPath2)" fill="none" x1="373" x2="373" y1="351" y2="349"/>
            <line clip-path="url(#clipPath2)" fill="none" x1="386" x2="386" y1="19" y2="21"/>
            <line clip-path="url(#clipPath2)" fill="none" x1="386" x2="386" y1="351" y2="349"/>
            <line clip-path="url(#clipPath2)" fill="none" x1="399" x2="399" y1="19" y2="21"/>
            <line clip-path="url(#clipPath2)" fill="none" x1="399" x2="399" y1="351" y2="349"/>
            <line clip-path="url(#clipPath2)" fill="none" x1="413" x2="413" y1="19" y2="21"/>
            <line clip-path="url(#clipPath2)" fill="none" x1="413" x2="413" y1="351" y2="349"/>
            <line clip-path="url(#clipPath2)" fill="none" x1="426" x2="426" y1="17" y2="21"/>
            <line clip-path="url(#clipPath2)" fill="none" x1="426" x2="426" y1="353" y2="349"/>
            <text xml:space="preserve" x="410" y="13" clip-path="url(#clipPath2)" stroke="none">10.0060</text>
            <text xml:space="preserve" x="410" y="364" clip-path="url(#clipPath2)" stroke="none">10.0060</text>
            <line clip-path="url(#clipPath2)" fill="none" x1="439" x2="439" y1="19" y2="21"/>
            <line clip-path="url(#clipPath2)" fill="none" x1="439" x2="439" y1="351" y2="349"/>
            <line clip-path="url(#clipPath2)" fill="none" x1="453" x2="453" y1="19" y2="21"/>
            <line clip-path="url(#clipPath2)" fill="none" x1="453" x2="453" y1="351" y2="349"/>
            <line clip-path="url(#clipPath2)" fill="none" x1="466" x2="466" y1="19" y2="21"/>
            <line clip-path="url(#clipPath2)" fill="none" x1="466" x2="466" y1="351" y2="349"/>
            <line clip-path="url(#clipPath2)" fill="none" x1="479" x2="479" y1="19" y2="21"/>
            <line clip-path="url(#clipPath2)" fill="none" x1="479" x2="479" y1="351" y2="349"/>
            <line clip-path="url(#clipPath2)" fill="none" x1="493" x2="493" y1="17" y2="21"/>
            <line clip-path="url(#clipPath2)" fill="none" x1="493" x2="493" y1="353" y2="349"/>
            <text xml:space="preserve" x="477" y="13" clip-path="url(#clipPath2)" stroke="none">10.0070</text>
            <text xml:space="preserve" x="477" y="364" clip-path="url(#clipPath2)" stroke="none">10.0070</text>
            <line clip-path="url(#clipPath2)" fill="none" x1="506" x2="506" y1="19" y2="21"/>
            <line clip-path="url(#clipPath2)" fill="none" x1="506" x2="506" y1="351" y2="349"/>
            <line clip-path="url(#clipPath2)" fill="none" x1="519" x2="519" y1="19" y2="21"/>
            <line clip-path="url(#clipPath2)" fill="none" x1="519" x2="519" y1="351" y2="349"/>
            <line clip-path="url(#clipPath2)" fill="none" x1="533" x2="533" y1="19" y2="21"/>
            <line clip-path="url(#clipPath2)" fill="none" x1="533" x2="533" y1="351" y2="349"/>
            <line clip-path="url(#clipPath2)" fill="none" x1="546" x2="546" y1="19" y2="21"/>
            <line clip-path="url(#clipPath2)" fill="none" x1="546" x2="546" y1="351" y2="349"/>
            <line clip-path="url(#clipPath2)" fill="none" x1="559" x2="559" y1="17" y2="21"/>
            <line clip-path="url(#clipPath2)" fill="none" x1="559" x2="559" y1="353" y2="349"/>
            <text xml:space="preserve" x="543" y="13" clip-path="url(#clipPath2)" stroke="none">10.0080</text>
            <text xml:space="preserve" x="543" y="364" clip-path="url(#clipPath2)" stroke="none">10.0080</text>
            <line clip-path="url(#clipPath2)" fill="none" x1="573" x2="573" y1="19" y2="21"/>
            <line clip-path="url(#clipPath2)" fill="none" x1="573" x2="573" y1="351" y2="349"/>
            <line clip-path="url(#clipPath2)" fill="none" x1="586" x2="586" y1="19" y2="21"/>
            <line clip-path="url(#clipPath2)" fill="none" x1="586" x2="586" y1="351" y2="349"/>
            <line clip-path="url(#clipPath2)" fill="none" x1="599" x2="599" y1="19" y2="21"/>
            <line clip-path="url(#clipPath2)" fill="none" x1="599" x2="599" y1="351" y2="349"/>
            <line clip-path="url(#clipPath2)" fill="none" x1="613" x2="613" y1="19" y2="21"/>
            <line clip-path="url(#clipPath2)" fill="none" x1="613" x2="613" y1="351" y2="349"/>
            <line clip-path="url(#clipPath2)" fill="none" x1="626" x2="626" y1="17" y2="21"/>
            <line clip-path="url(#clipPath2)" fill="none" x1="626" x2="626" y1="353" y2="349"/>
            <text xml:space="preserve" x="610" y="13" clip-path="url(#clipPath2)" stroke="none">10.0090</text>
            <text xml:space="preserve" x="610" y="364" clip-path="url(#clipPath2)" stroke="none">10.0090</text>
            <line clip-path="url(#clipPath2)" fill="none" x1="639" x2="639" y1="19" y2="21"/>
            <line clip-path="url(#clipPath2)" fill="none" x1="639" x2="639" y1="351" y2="349"/>
            <line clip-path="url(#clipPath2)" fill="none" x1="653" x2="653" y1="19" y2="21"/>
            <line clip-path="url(#clipPath2)" fill="none" x1="653" x2="653" y1="351" y2="349"/>
            <line clip-path="url(#clipPath2)" fill="none" x1="666" x2="666" y1="19" y2="21"/>
            <line clip-path="url(#clipPath2)" fill="none" x1="666" x2="666" y1="351" y2="349"/>
            <line clip-path="url(#clipPath2)" fill="none" x1="679" x2="679" y1="19" y2="21"/>
            <line clip-path="url(#clipPath2)" fill="none" x1="679" x2="679" y1="351" y2="349"/>
            <line clip-path="url(#clipPath2)" fill="none" x1="693" x2="693" y1="17" y2="21"/>
            <line clip-path="url(#clipPath2)" fill="none" x1="693" x2="693" y1="353" y2="349"/>
            <text xml:space="preserve" x="677" y="13" clip-path="url(#clipPath2)" stroke="none">10.0100</text>
            <text xml:space="preserve" x="677" y="364" clip-path="url(#clipPath2)" stroke="none">10.0100</text>
            <line clip-path="url(#clipPath2)" fill="none" x1="706" x2="706" y1="19" y2="21"/>
            <line clip-path="url(#clipPath2)" fill="none" x1="706" x2="706" y1="351" y2="349"/>
            <line clip-path="url(#clipPath2)" fill="none" x1="720" x2="720" y1="19" y2="21"/>
            <line clip-path="url(#clipPath2)" fill="none" x1="720" x2="720" y1="351" y2="349"/>
            <line clip-path="url(#clipPath2)" fill="none" x1="733" x2="733" y1="19" y2="21"/>
            <line clip-path="url(#clipPath2)" fill="none" x1="733" x2="733" y1="351" y2="349"/>
            <line clip-path="url(#clipPath2)" fill="none" x1="746" x2="746" y1="19" y2="21"/>
            <line clip-path="url(#clipPath2)" fill="none" x1="746" x2="746" y1="351" y2="349"/>
            <line clip-path="url(#clipPath2)" fill="none" x1="760" x2="760" y1="17" y2="21"/>
            <line clip-path="url(#clipPath2)" fill="none" x1="760" x2="760" y1="353" y2="349"/>
            <text xml:space="preserve" x="744" y="13" clip-path="url(#clipPath2)" stroke="none">10.0110</text>
            <text xml:space="preserve" x="744" y="364" clip-path="url(#clipPath2)" stroke="none">10.0110</text>
            <line clip-path="url(#clipPath2)" fill="none" x1="773" x2="773" y1="19" y2="21"/>
            <line clip-path="url(#clipPath2)" fill="none" x1="773" x2="773" y1="351" y2="349"/>
            <line clip-path="url(#clipPath2)" fill="none" x1="786" x2="786" y1="19" y2="21"/>
            <line clip-path="url(#clipPath2)" fill="none" x1="786" x2="786" y1="351" y2="349"/>
            <line clip-path="url(#clipPath2)" fill="none" x1="800" x2="800" y1="19" y2="21"/>
            <line clip-path="url(#clipPath2)" fill="none" x1="800" x2="800" y1="351" y2="349"/>
            <line clip-path="url(#clipPath2)" fill="none" x1="813" x2="813" y1="19" y2="21"/>
            <line clip-path="url(#clipPath2)" fill="none" x1="813" x2="813" y1="351" y2="349"/>
            <line clip-path="url(#clipPath2)" fill="none" x1="826" x2="826" y1="17" y2="21"/>
            <line clip-path="url(#clipPath2)" fill="none" x1="826" x2="826" y1="353" y2="349"/>
            <text xml:space="preserve" x="810" y="13" clip-path="url(#clipPath2)" stroke="none">10.0120</text>
            <text xml:space="preserve" x="810" y="364" clip-path="url(#clipPath2)" stroke="none">10.0120</text>
            <line clip-path="url(#clipPath2)" fill="none" x1="840" x2="840" y1="19" y2="21"/>
            <line clip-path="url(#clipPath2)" fill="none" x1="840" x2="840" y1="351" y2="349"/>
            <line clip-path="url(#clipPath2)" fill="none" x1="853" x2="853" y1="19" y2="21"/>
            <line clip-path="url(#clipPath2)" fill="none" x1="853" x2="853" y1="351" y2="349"/>
            <line clip-path="url(#clipPath2)" fill="none" x1="866" x2="866" y1="19" y2="21"/>
            <line clip-path="url(#clipPath2)" fill="none" x1="866" x2="866" y1="351" y2="349"/>
            <line clip-path="url(#clipPath2)" fill="none" x1="880" x2="880" y1="19" y2="21"/>
            <line clip-path="url(#clipPath2)" fill="none" x1="880" x2="880" y1="351" y2="349"/>
            <line clip-path="url(#clipPath2)" fill="none" x1="893" x2="893" y1="17" y2="21"/>
            <line clip-path="url(#clipPath2)" fill="none" x1="893" x2="893" y1="353" y2="349"/>
            <text xml:space="preserve" x="877" y="13" clip-path="url(#clipPath2)" stroke="none">10.0130</text>
            <text xml:space="preserve" x="877" y="364" clip-path="url(#clipPath2)" stroke="none">10.0130</text>
            <line clip-path="url(#clipPath2)" fill="none" x1="906" x2="906" y1="19" y2="21"/>
            <line clip-path="url(#clipPath2)" fill="none" x1="906" x2="906" y1="351" y2="349"/>
            <line clip-path="url(#clipPath2)" fill="none" x1="920" x2="920" y1="19" y2="21"/>
            <line clip-path="url(#clipPath2)" fill="none" x1="920" x2="920" y1="351" y2="349"/>
            <line clip-path="url(#clipPath2)" fill="none" x1="933" x2="933" y1="19" y2="21"/>
            <line clip-path="url(#clipPath2)" fill="none" x1="933" x2="933" y1="351" y2="349"/>
            <line clip-path="url(#clipPath2)" fill="none" x1="946" x2="946" y1="19" y2="21"/>
            <line clip-path="url(#clipPath2)" fill="none" x1="946" x2="946" y1="351" y2="349"/>
            <line clip-path="url(#clipPath2)" fill="none" x1="960" x2="960" y1="17" y2="21"/>
            <line clip-path="url(#clipPath2)" fill="none" x1="960" x2="960" y1="353" y2="349"/>
            <text xml:space="preserve" x="944" y="13" clip-path="url(#clipPath2)" stroke="none">10.0140</text>
            <text xml:space="preserve" x="944" y="364" clip-path="url(#clipPath2)" stroke="none">10.0140</text>
            <line clip-path="url(#clipPath2)" fill="none" x1="973" x2="973" y1="19" y2="21"/>
            <line clip-path="url(#clipPath2)" fill="none" x1="973" x2="973" y1="351" y2="349"/>
            <line clip-path="url(#clipPath2)" fill="none" x1="986" x2="986" y1="19" y2="21"/>
            <line clip-path="url(#clipPath2)" fill="none" x1="986" x2="986" y1="351" y2="349"/>
            <line clip-path="url(#clipPath2)" fill="none" x1="1000" x2="1000" y1="19" y2="21"/>
            <line clip-path="url(#clipPath2)" fill="none" x1="1000" x2="1000" y1="351" y2="349"/>
            <line clip-path="url(#clipPath2)" fill="none" x1="1013" x2="1013" y1="19" y2="21"/>
            <line clip-path="url(#clipPath2)" fill="none" x1="1013" x2="1013" y1="351" y2="349"/>
            <line clip-path="url(#clipPath2)" fill="none" x1="1027" x2="1027" y1="17" y2="21"/>
            <line clip-path="url(#clipPath2)" fill="none" x1="1027" x2="1027" y1="353" y2="349"/>
            <text xml:space="preserve" x="1011" y="13" clip-path="url(#clipPath2)" stroke="none">10.0150</text>
            <text xml:space="preserve" x="1011" y="364" clip-path="url(#clipPath2)" stroke="none">10.0150</text>
            <line clip-path="url(#clipPath2)" fill="none" x1="24" x2="24" y1="23" y2="347"/>
            <line clip-path="url(#clipPath2)" fill="none" x1="1029" x2="1029" y1="23" y2="347"/>
            <line clip-path="url(#clipPath2)" fill="none" x1="20" x2="24" y1="347" y2="347"/>
            <line clip-path="url(#clipPath2)" fill="none" x1="1033" x2="1029" y1="347" y2="347"/>
            <text xml:space="preserve" x="14" y="351" clip-path="url(#clipPath2)" stroke="none">0</text>
            <text xml:space="preserve" x="1036" y="351" clip-path="url(#clipPath2)" stroke="none">0</text>
            <line clip-path="url(#clipPath2)" fill="none" x1="22" x2="24" y1="320" y2="320"/>
            <line clip-path="url(#clipPath2)" fill="none" x1="1031" x2="1029" y1="320" y2="320"/>
            <line clip-path="url(#clipPath2)" fill="none" x1="20" x2="24" y1="293" y2="293"/>
            <line clip-path="url(#clipPath2)" fill="none" x1="1033" x2="1029" y1="293" y2="293"/>
            <text xml:space="preserve" x="14" y="297" clip-path="url(#clipPath2)" stroke="none">2</text>
            <text xml:space="preserve" x="1036" y="297" clip-path="url(#clipPath2)" stroke="none">2</text>
            <line clip-path="url(#clipPath2)" fill="none" x1="22" x2="24" y1="266" y2="266"/>
            <line clip-path="url(#clipPath2)" fill="none" x1="1031" x2="1029" y1="266" y2="266"/>
            <line clip-path="url(#clipPath2)" fill="none" x1="20" x2="24" y1="239" y2="239"/>
            <line clip-path="url(#clipPath2)" fill="none" x1="1033" x2="1029" y1="239" y2="239"/>
            <text xml:space="preserve" x="14" y="243" clip-path="url(#clipPath2)" stroke="none">4</text>
            <text xml:space="preserve" x="1036" y="243" clip-path="url(#clipPath2)" stroke="none">4</text>
            <line clip-path="url(#clipPath2)" fill="none" x1="22" x2="24" y1="212" y2="212"/>
            <line clip-path="url(#clipPath2)" fill="none" x1="1031" x2="1029" y1="212" y2="212"/>
            <line clip-path="url(#clipPath2)" fill="none" x1="20" x2="24" y1="185" y2="185"/>
            <line clip-path="url(#clipPath2)" fill="none" x1="1033" x2="1029" y1="185" y2="185"/>
            <text xml:space="preserve" x="14" y="189" clip-path="url(#clipPath2)" stroke="none">6</text>
            <text xml:space="preserve" x="1036" y="189" clip-path="url(#clipPath2)" stroke="none">6</text>
            <line clip-path="url(#clipPath2)" fill="none" x1="22" x2="24" y1="158" y2="158"/>
            <line clip-path="url(#clipPath2)" fill="none" x1="1031" x2="1029" y1="158" y2="158"/>
            <line clip-path="url(#clipPath2)" fill="none" x1="20" x2="24" y1="131" y2="131"/>
            <line clip-path="url(#clipPath2)" fill="none" x1="1033" x2="1029" y1="131" y2="131"/>
            <text xml:space="preserve" x="14" y="135" clip-path="url(#clipPath2)" stroke="none">8</text>
            <text xml:space="preserve" x="1036" y="135" clip-path="url(#clipPath2)" stroke="none">8</text>
            <line clip-path="url(#clipPath2)" fill="none" x1="22" x2="24" y1="104" y2="104"/>
            <line clip-path="url(#clipPath2)" fill="none" x1="1031" x2="1029" y1="104" y2="104"/>
            <line clip-path="url(#clipPath2)" fill="none" x1="20" x2="24" y1="77" y2="77"/>
            <line clip-path="url(#clipPath2)" fill="none" x1="1033" x2="1029" y1="77" y2="77"/>
            <text xml:space="preserve" x="9" y="81" clip-path="url(#clipPath2)" stroke="none">10</text>
            <text xml:space="preserve" x="1036" y="81" clip-path="url(#clipPath2)" stroke="none">10</text>
            <line clip-path="url(#clipPath2)" fill="none" x1="22" x2="24" y1="50" y2="50"/>
            <line clip-path="url(#clipPath2)" fill="none" x1="1031" x2="1029" y1="50" y2="50"/>
            <line clip-path="url(#clipPath2)" fill="none" x1="20" x2="24" y1="23" y2="23"/>
            <line clip-path="url(#clipPath2)" fill="none" x1="1033" x2="1029" y1="23" y2="23"/>
            <text xml:space="preserve" x="9" y="27" clip-path="url(#clipPath2)" stroke="none">12</text>
            <text xml:space="preserve" x="1036" y="27" clip-path="url(#clipPath2)" stroke="none">12</text>
        </g>
    </g>
</svg>
